<mxfile host="Electron" agent="Mozilla/5.0 (Windows NT 10.0; Win64; x64) AppleWebKit/537.36 (KHTML, like Gecko) draw.io/24.7.17 Chrome/128.0.6613.36 Electron/32.0.1 Safari/537.36" version="24.7.17" pages="2">
  <diagram name="pid" id="dJs5ANWagsqdlJFfiotf">
    <mxGraphModel dx="2247" dy="830" grid="1" gridSize="10" guides="1" tooltips="1" connect="1" arrows="1" fold="1" page="1" pageScale="1" pageWidth="827" pageHeight="1169" math="1" shadow="0">
      <root>
        <mxCell id="0" />
        <mxCell id="1" parent="0" />
        <mxCell id="lLhfapHPsjBxqhKbYOWj-4" value="" style="rounded=1;whiteSpace=wrap;html=1;dashed=1;fillColor=#f5f5f5;fontColor=#333333;strokeColor=#666666;" parent="1" vertex="1">
          <mxGeometry x="140" y="55" width="150" height="250" as="geometry" />
        </mxCell>
        <mxCell id="OJU23E8Mb1LuJJcbQzA--9" value="" style="edgeStyle=orthogonalEdgeStyle;rounded=0;orthogonalLoop=1;jettySize=auto;html=1;strokeWidth=2;" parent="1" source="OJU23E8Mb1LuJJcbQzA--1" target="OJU23E8Mb1LuJJcbQzA--8" edge="1">
          <mxGeometry relative="1" as="geometry" />
        </mxCell>
        <mxCell id="OJU23E8Mb1LuJJcbQzA--11" style="edgeStyle=orthogonalEdgeStyle;rounded=0;orthogonalLoop=1;jettySize=auto;html=1;entryX=0.5;entryY=1;entryDx=0;entryDy=0;strokeWidth=2;" parent="1" target="OJU23E8Mb1LuJJcbQzA--4" edge="1">
          <mxGeometry relative="1" as="geometry">
            <mxPoint x="530" y="184" as="sourcePoint" />
            <Array as="points">
              <mxPoint x="530" y="340" />
              <mxPoint x="-48" y="340" />
            </Array>
          </mxGeometry>
        </mxCell>
        <mxCell id="OJU23E8Mb1LuJJcbQzA--1" value="&lt;font size=&quot;1&quot; style=&quot;&quot;&gt;&lt;b style=&quot;font-size: 15px;&quot;&gt;Planta&lt;/b&gt;&lt;/font&gt;&lt;div&gt;&lt;font style=&quot;font-size: 20px;&quot;&gt;$$G(s)$$&lt;/font&gt;&lt;/div&gt;" style="rounded=1;whiteSpace=wrap;html=1;" parent="1" vertex="1">
          <mxGeometry x="371" y="134" width="120" height="100" as="geometry" />
        </mxCell>
        <mxCell id="OJU23E8Mb1LuJJcbQzA--6" style="edgeStyle=orthogonalEdgeStyle;rounded=0;orthogonalLoop=1;jettySize=auto;html=1;strokeWidth=2;" parent="1" target="OJU23E8Mb1LuJJcbQzA--1" edge="1">
          <mxGeometry relative="1" as="geometry">
            <mxPoint x="291" y="184" as="sourcePoint" />
          </mxGeometry>
        </mxCell>
        <mxCell id="OJU23E8Mb1LuJJcbQzA--5" style="edgeStyle=orthogonalEdgeStyle;rounded=0;orthogonalLoop=1;jettySize=auto;html=1;strokeWidth=2;" parent="1" source="OJU23E8Mb1LuJJcbQzA--4" edge="1">
          <mxGeometry relative="1" as="geometry">
            <mxPoint x="140" y="180" as="targetPoint" />
          </mxGeometry>
        </mxCell>
        <mxCell id="OJU23E8Mb1LuJJcbQzA--12" style="edgeStyle=orthogonalEdgeStyle;rounded=0;orthogonalLoop=1;jettySize=auto;html=1;endArrow=none;endFill=0;startArrow=classic;startFill=1;strokeWidth=2;" parent="1" source="OJU23E8Mb1LuJJcbQzA--4" edge="1">
          <mxGeometry relative="1" as="geometry">
            <mxPoint x="-133" y="180" as="targetPoint" />
          </mxGeometry>
        </mxCell>
        <mxCell id="OJU23E8Mb1LuJJcbQzA--4" value="" style="shape=orEllipse;perimeter=ellipsePerimeter;whiteSpace=wrap;html=1;backgroundOutline=1;" parent="1" vertex="1">
          <mxGeometry x="-73" y="155" width="50" height="50" as="geometry" />
        </mxCell>
        <mxCell id="OJU23E8Mb1LuJJcbQzA--8" value="&lt;font style=&quot;font-size: 20px;&quot;&gt;$$Y$$&lt;/font&gt;" style="whiteSpace=wrap;html=1;rounded=1;strokeColor=none;fillColor=none;" parent="1" vertex="1">
          <mxGeometry x="571" y="154" width="40" height="60" as="geometry" />
        </mxCell>
        <mxCell id="OJU23E8Mb1LuJJcbQzA--13" value="&lt;font style=&quot;font-size: 20px;&quot;&gt;$$R$$&lt;/font&gt;" style="whiteSpace=wrap;html=1;rounded=1;strokeColor=none;fillColor=none;" parent="1" vertex="1">
          <mxGeometry x="-133" y="140" width="40" height="30" as="geometry" />
        </mxCell>
        <mxCell id="OJU23E8Mb1LuJJcbQzA--14" value="&lt;font style=&quot;font-size: 20px;&quot;&gt;$$U$$&lt;/font&gt;" style="whiteSpace=wrap;html=1;rounded=1;strokeColor=none;fillColor=none;" parent="1" vertex="1">
          <mxGeometry x="311" y="144" width="40" height="30" as="geometry" />
        </mxCell>
        <mxCell id="OJU23E8Mb1LuJJcbQzA--15" value="&lt;font style=&quot;font-size: 20px;&quot;&gt;$$-$$&lt;/font&gt;" style="whiteSpace=wrap;html=1;rounded=1;strokeColor=none;fillColor=none;" parent="1" vertex="1">
          <mxGeometry x="-93" y="205" width="30" height="30" as="geometry" />
        </mxCell>
        <mxCell id="OJU23E8Mb1LuJJcbQzA--16" value="&lt;font style=&quot;font-size: 20px;&quot;&gt;$$E = (R-Y)$$&lt;/font&gt;" style="whiteSpace=wrap;html=1;rounded=1;strokeColor=none;fillColor=none;" parent="1" vertex="1">
          <mxGeometry x="-12" y="139" width="130" height="30" as="geometry" />
        </mxCell>
        <mxCell id="OJU23E8Mb1LuJJcbQzA--18" value="" style="shape=image;verticalLabelPosition=bottom;labelBackgroundColor=default;verticalAlign=top;aspect=fixed;imageAspect=0;image=data:image/png,iVBORw0KGgoAAAANSUhEUgAAA5QAAACECAYAAADvCGROAAAAAXNSR0IArs4c6QAAAARnQU1BAACxjwv8YQUAAAAJcEhZcwAADsMAAA7DAcdvqGQAAD7+SURBVHhe7Z0JvFRl3ccPpbmRGsKLkCS5vC6JL1BqoiYamLEISKKEppiKWoGaqYVLJIrmgiAmLrGZO4JLiSKaKxpqIrj3uiBaor65gGvlvOf793muh3HunZkzZ2bOmfv7fj7DnPvMcO7cM8/5P//9aZMLCYQQQgghhBBCiDL5gnsWQgghhBBCCCHKQgalEEIIIYQQQohYyKAUQgghhBBCCBELGZRCCCGEEEIIIWIhg1IIIYQQQgghRCxkUAohhBBCCCGEiIUMSiGEEEIIIYQQsZBBKYQQQgghhBAiFjIohRBCCCGEEELEQgalEEIIIYQQQohYyKAUQgghhBBCCBELGZRCCCGEEEIIIWIhg1IIIYQQQgghRCxkUAohhBBCCCGEiIUMSiGEEEIIIYQQsZBBKYQQQgghhBAiFjIohRBCCCGEEELEQgalEEIIIYQQQohYyKAUQgghhBBCCBELGZRCCCGEEEIIIWIhg1IIIYQQQgghRCxkUAohhBBCCCGEiIUMSiGEEEIIIYQQsZBBKYQQQgghhBAiFjIohRBCCCGEEELEQgalEEIIIYQQQohYyKAUQgghhBBCCBELGZRCCCGEEEIIIWIhg1IIIYQQQgghRCxkUAohhBBCCCGEiIUMSiGEEEIIIYQQsZBBKYQQQgghhBAiFjIohagDU6dODcaOHet+EkLE4YorrghOOOGE4N///rcbESIZHnzwweDAAw8MHn/8cTcihCiXVatW6T5qJcigFKLGnHrqqcExxxwT7LLLLm5ECBGHvfbaK7jxxhuDwYMHBx988IEbFaIy7rzzzqBPnz5BLpcLtttuOzcqhCiXtm3bBp07dw722GOP4L777nOjohFpEwrMnDsWQlSZE088MTjnnHOC2bNnB/vuu68bFULE5eWXXw523XXX4Otf/3owb968YN1113WvCFE+CxYsCAYOHBh897vfDW666abgi1/8ontFCBGXkSNHBtdcc00wd+7cYO+993ajopGQQSlEjbj44ouDo48+Ohg3bpxFKUV2IY3no48+CjbaaCM3IurJU089Feywww5B7969zQhYY4013CtClM5zzz0X7LjjjsHGG28c/OUvfwk22GAD94rIIn//+98tOibqz7/+9a+gf//+lkpOpLJ79+7uFdEoKOVViBpw9913B2PGjAn222+/4JRTTnGjIouQDofS+fOf/9yNiHqz7bbbBpMmTQpuvfXW4Nhjj3WjQpTOypUrLXUacErImMwub731VnDyyScHX/va18zxJ+rPmmuuGdxwww3B5ptvbhkAK1ascK+IRkERSiGqzIsvvmgGSJcuXYL7779fKXkZ4/bbb7e0ysWLF9v3t2TJEhs/6KCDglmzZtmxSAcHHHBAcO211wbTp08PDjnkEDcqRMugBg0ZMiS45ZZb7NGvXz/3isgCzz77rMnlZ555xpq/ILPJIgFqq9dee207FvVn+fLlVpfMA0c7hqZoDBShFKKKvP/++8GgQYPMS0rzEBmT2eP3v/+9LXzt2rULLrroIjVTSjGXXnqp1VL+7Gc/C1566SU3KkTLnH766RaVPOmkk2RMZpCHHnoomDlzZvDGG28EAwYMCM466yz3ikgbONYnTJgQLFy40O470TgoQilEFWFLA5rwnHfeecFxxx3nRkWWoQHMAw88oAhlSlm0aFHQq1evYM899wzmz5/vRoUozNKlS4OePXsGnTp1sgiXnH7ZB7l88MEH27EilOkDswPH7MMPP2zyukePHu4VkWUUoRSiSjzxxBPBxIkTLbVj9OjRblQIUU1ILx81alRwxx13BNOmTXOjQnweFFsapbGP6W9/+1sZk0LUgDZt2gRTpkwJPvnkEytNoGGPyD4yKIWoAigqRx55pCkqCE51nRSidpBKRQdeGie99tprblSI1SGSRV00EW3qb4UQtYGsgMMOO8xqX8844ww3KrKMDEohqgCREdIiv/e97wW77767GxVC1ALqXcePHx+8/fbbUlZEQegESkkCqOZOiNqDbP7KV75iZUFy/GUfGZRCJAw1G7/61a/sWEXnQtSHH//4x0HHjh2Dyy67LHjllVfcqBCfcvbZZwevv/568P3vfz/Ybbfd3KgQola0b98+OOKII6x5oRx/2UcGpRAJQ7c5FBX2WmKzdSFE7aEd/aGHHmodlqWsiCjsOTl16lSr5dLcEKJ+UO/OfUiH7mXLlrlRkUVkUAqRIBSZ09EVtPG9EPUF7/cXvvAF2/pFyorwELV+5513gr59+6rDpBB1hG2e9tprr+Djjz9WRlfGkUEpRIKw1+T//u//BhtvvLHSqISoM127drU6ZroIYkQIQaO0SZMm2fHw4cPtWQhRP2hgCH/4wx+Cf/7zn3YssocMSiES5Nxzz7XnoUOHWmRECFFfvLIyY8aM4D//+Y8di9bL9ddfH7z88svBWmutFQwZMsSNCiHqBeVBX/3qV608gZIhkU2k8QqREM8++2zw4IMP2vGwYcPsWQhRX/r37x906dIlePXVV4PbbrvNjYrWCo4F6NevX7DBBhvYsRCifnzxi1+0JmqgTJLsIoNSiISYPXu2PXfq1CnYdddd7VgIUV9QVtjvDC6//HJ7Fq0T0unuuusuO9a+k0Kkh8MPP9yyup5++ungvvvuc6MiS8igFCIhvEGpdFch0gVRSpg3b561qBetE2rcqaFs27atpdkJIdLBJptsEvzP//yPHV933XX2LLKFtF4hEuD5558PFi9ebMf77befPQsh0kH37t3NiKBG55577nGjorXhnX6DBg0K1llnHTsWQqQDn9ml0oRsIoNSiAS44YYb7LlDhw5KdxUiZZD2uvPOO9vxHXfcYc+idcE2IQsWLLBjOf2ESB++Mz6d8nHSi2whg1KIBPjzn/9sz9/85jeV7ipECvGOnvnz59uzaF088MADtn0MfPvb37ZnIUR6iG61pihl9pDmK4IXX3zRHVUOnRQ//PBD91PrIJfLBQ899JAd+xoAIUS68MrKk08+Gfz973+346yCnE0KttBoDTJ74cKF9kzTtI4dO9qxECI9sH/35ptvbse33367PWcZHFivvPKK+6lynnvuOXeUTmRQtnIuvPDC4IQTTnA/VQ6KzoABA4KVK1e6kcaHrmRvv/22HW+//fb2LBoHmri8++67wf/93/8Fc+bMse8b7r//fotMM87rH3/8sY2LdLLTTjsFa665ph1nOUr5u9/9LpgyZYr7qXJeeOGFYPfddw/eeustN9KYeIOyR48e9iwaBxR3ZDBdfEmXvPbaa90rQXDeeecFK1assDWa94h04x1/rK1ZXlNJsd9jjz2Cp556yo1UDnI/SdmfNG1yhFdEq+SCCy6wJgXUFCXZoABBcNZZZ1lHvdbQ+ICtCGh5DU888UTwjW98w47jgiAiakwUBe8WBsvo0aOD9dZbz72jdUJDFeoqcFpwbXjQ+v/rX/+6e0d16N27d/DYY48FX/7yl60WLx+vzOCYOfXUU91odnnzzTeDZcuWBf/4xz9s/r333nvBz3/+c/dqtiHV8S9/+Utw4IEHBldccYUbzQ4XXXSRyVe6ICaZWn/11VcHEydOtKjAV77yFTfaOPznP/+xPSeZy2PHjg3Gjx/vXonHJ598YrLotddeMzm0fPlyq9HdZZdd3DtaL8gML6O5LkSEq12z+oc//MHWYGR0IZ0DNXfVqlXm6OZ5rbXWcq9kEzoVYzgjo72egPGy4447undkl2nTpjXtSXn33Xebsytr4Jz73ve+Fxx99NHBIYcc4kYrh3k8cuTI4Lvf/W5w0EEHudEUgUGZBKeddlouFNi5tddeOxcudE2PUAHLhTd5bsMNN2x6hDezjXXv3j135pln5kLl2Z1ldRYtWmTvb9u2bW6NNdZY7bw81l13XXs9NF7s/TzzcyhQPvfeUBlv+v08+P1rrrlmrnPnzrl99903N2vWrFyoGNp5aslLL72U69ixo32m/L/xS1/6Um799dfPbbPNNu7dnxEKEbveXN/o/+HBd3DVVVe5dxbm+uuvz2200Ua5UHl0I8ly7rnn5sIbKhcaAW6kcQmFH04Zm9dJzKFRo0blQqPU5gPnZe7WY26mjWuuuSbXrVs3uye4LjyWLFniXhVJ0b9//9y2226ba9OmjV1jjhuFMWPG2N+0ww47uJFkmDRpkslw7tV8WRxdd5i7vId5fNxxx+VChcmdoThz5szJbbbZZrn333/fjSTLiSeemOvdu3cuNL7cSOPw2GOPNcmM2bNnu9H4zJ8/P7f99tvn2rdv33Te6dOnu1dbLy+//HLum9/8Zm7TTTdtui4/+clP3KsiKR599FGbf//1X//VdJ1Do9q9mm2efPLJpr/p4osvdqPlcfXVV5t+jA4dlcc80Pu5bq+99pp79+dBb23Xrl3B//vTn/7UvaswobGf23XXXXPHH3+8G0mWjz/+2NaPuXPnupH0kJhB6fnwww9zoQXdNCFOPvlk98rqYBCdcMIJtriiuPC+Tz75xL36eRYvXpzr1KlT03lbunk4D4aqf+/QoUMLnhsl/eabb87169fPPkPXrl1zd955p3u19qBc+M+MUvfWW2+5V5qH9+y+++72f37wgx/YdWrpOsKKFStsIZw8ebIbSR6uLYpotW6qNIHw4Pr36NHDjSSDn8N9+/Z1IwIWLlxo1wWHSLG5LuLj5fgRRxzhRrLPeeedZ38T8q8aYIwNGDDAfgdr2/Lly90rn/HMM8/kLrrooty3vvUte9+IESOKyvpXX33VFJxrr73WjSTPe++9Z4bAhAkT3EjjgILJtebx/PPPu9HKeeONN5rO+7e//c2NCsCw5LrgCBTVYdWqVU3zr5CsySIrV65s+pt+8YtfuNF4vPPOO6ZL+/Pts88+dv5SQJYfdNBB9v969uyZu/fee82+Kcb48ePNVin198RhwYIFFlDDgZMmEjcoAQHiv8Bi3sAnnnjCrH7eO2jQoBa9o15x51HMS7t06dKm944bN86NNg+fky+IiN+FF17oRmvLZZdd1vSZ77//fjdaHAxDPMulKtfDhw/PbbXVVlWPemGcE2V7/PHH3Uhjsskmm9h3dsghh7iRZNh///3tvKeffrobSTe1iqISXee6DB482I20LvBQ1gIcJFznK664wo1kn+jahDJWDZCtnJ/1rCXefvttyz7hvcWcRjg9e/Xq5X6qHjhYWY+ffvppN9IYeOccUeIkYY3jvBtvvLEbST+1kNM4SIjocG1eeeUVN9p6qNVa+Oyzz9o1JnOhkfBZSARJKuW+++6zc/H47//+bzdaHCKNZIqdeuqpdlwK3p6ZOXOmG6keXJthw4a5n9JB3ZvyUG82atQoO77pppvqVtcydOhQa7gRGmXBmDFjgnBhda/UjlBRtmc24KaBRKnQVGHIkCFBmzZt3Ejz/O1vf7OCdWocQ2PPjVaHPffc03L6/ffbiIQLh9UwQCjU7Tkp/AbsWakhoH6oFq2+/V5yWaytqBRqa9ddd12rc6wmNLB4/PHH7biR9lX96le/6o6C4KWXXnJHyUFNU6jk2XG0BX4hqOkbMWKEHVPH3ty9gxy49dZbg9/+9rdupHoMHDgw6NatW0PUAkfx37XvIJkU9957rz1npXZyxowZwbe+9S33U/WgYRm6VNeuXVe751oL1M/Rn6LaNOpa6OcMum2lsH6FhqQd0yXVd+QvxvHHH2+1v+PGjSvYO6EQv/nNb6zTfy3qG0855RSrpfd6YhpIRZfX73znO+4osIUMQVQPEAIU0PL7WeiT7M5UDAyT++67z45RRMox9phQGG+lMHny5GD99de3Tqy1YP/997cbuFH3fqPlvp+v7du3t+ckQCml4cPaa6+dmUJ7mgnRQKja3HnnnfYclRutBYr9acjAta4myCLm9SabbGJKYaNQbYPS70cLxQxKiMp5Gj8VAucfzqpaGS3Dhw8PbrjhBmv60Sj4rbE6dOhgz0kRXbOzAF1QayGjvaHdSM6octBaWBmdO3e256S2tKORjWfWrFnuqHnQk2ngddppp7mR4tCACicCxmQpwZ1KYUeBbbbZpiaOxlJJhUGJ0uJBQa/FjdgcvvsbncBOP/10O64FixcvDj744AM7LtU4BAQXXvFSOovyN3Ezff/73696dNIzbNgw60ZIJ9RGJKqUbrTRRu6ocuhuBkSqs96RLkmQDyi6RHe6d+/uRkXS+PnXaAqhV1SgGgalv27rrbde0LNnTztuiUWLFrmjTyOW+dBJlM6rgwYNciPVBydgLpezbouNQjUMSpzAPtrRWg2n5vCGtq5L9cDh5x1YjRqhxIGahPP04IMPbooykqHX0nYk7E5ARgjbM5XDzJkz7TuptawmsyWJSG4SpMKgpKV3lC996UvuqPagcGyxxRZ2TArs66+/bsfV5oEHHnBH5RmUpJbgnSrFI0JKLdsb7LPPPm6k+rBRLZ8PpYgFuNGolkGZtXTXWuE9sigqOCpEdfDzr9EUQpwz/j6tZoSS7UmKOe3wgM+bN8+ON9xwQyu7yAejDuNu8ODBbqT6dOnSxaKht9xyixvJNih5OKIgSYPykUcesT1qKVGRc+szuCaPPvqoHcugrB5kNGBwcb9We+usWhPNJEnCWGLrGgIpQJT+j3/8ox3nw5ZSBJUwOssNurB1DXJg0003dSPVh4AN8m369OlupL6kQiOLThjS+wp5amuJr1/Ei9FceJw98ZiYSeEVkXbt2pW1OKH4sf9QKTz44IP2TGpvuWAMUn9xxBFHWDrwSSed1FRjVYwddtjBDFnvtWwk6mFQMu8QXuTP+6h2a8EblIWuC/crqXpcG9JPRDzwCJMxAYVS+djzDFmAw43022qBEcCegXiXKUW47LLLEtmY3CsrSRuUXBefJlpKCuRVV13VdP+eccYZQceOHe04CjKbvfXipLt++OGH5mU/7LDDTGZTc1NqGQcymz112Y8061Dj7iMSSRqUfj1j/8n8GiucANTFErVYunSpG20dMGfRF1gPt912Wzf6GegNKMDR9HBRPi2thRgZRNnoSUKWQ7XAeTBp0iTbN5K9fakhpE9HpUQzSaqR9lqoVwvXib+DwEu5NgjrEmVK3mgtF373iSeeGPzoRz+yte73v/99wJ6pxSDlFYdWNNOlnqTCoPTNaCAN+cDRhjjRyKEHRWSrrbaymjmUgkohQhs1IMqJvFCrUGpEc8mSJbaglrtxNQsnCwMeMW448srZWJXanksuucS9q3m4VvDXv/7VnhsJ0o09SdVQIpBRgoimoKx4SAVno1w2mSeKz8K99957m3OjteAX0d69e9szsHgiN37wgx/YAofB3adPn6aohCgPsh6QScgJGrR4MJgOPfTQ4Mwzz7TXiK798Ic/dK8myy9+8Yugf//+li2C84qfMV779etXcW1ftQxKn+4KxQzKhx9+ODj22GODNddc0xQy7utCYIxsueWWJTeF8PzpT38Ktt56a1PGjjrqKJPZOGu5ligrxeD/QiPIbN80DZI0KH2dIBk4Ua655hqTRcxTDEsae/j3tgai6a7RzKknn3zS6nOJ/iA/MD5+/etfu1dFufiGPNG1ELi/CRogrzHskaPVMDhoXLnddtsFb7zxRvDTn/7UZEyPHj3MMMLZXQnRCGVSBiXXgUwQwNiOltZxTIYIpVlxor3MbfDNf8ph9OjRFmmkmc+vfvUrW+v43uhzUopjHP261OBO1QkFXuKUs23IjBkz7H20mKa1d0uEAqrpvElvGxIlXIyb/u/mm2/uRj8jFIRNr4cKvxuNT3izN53vggsucKPFoe08+4aVQqh0275ooVLhRkqDlt9sAjtx4kQ38hlPPfWU7TX5zjvvuJHChAuM/W2HH364GykfNqENBUtij3fffdeduTIOPPDApu+u2JwslUsvvdTOFyqlbuTTfVu//e1v2/0C559/ftPvZV+7NMB2CdXcXJmW3Py9tBT3bbzZZojtWtgknu00QgW4aRuiRtruwsOG1vxtobLqRpKHvWP5Heyn6Fm2bJnNv3vuucd+Dg0Tew+PUluqlwpzm+0d+J1RkGGhApoLFXQ3Eg/+P5+7nBbypRAa23Ze5h97OhaC/STZc7lt27a2f/BDDz3kXvk8vJfzlfv3sjE452evy3z4fZ07dy4q//ie+d1nn322G8kuoTFnfwuPm266yY1WBnKHOco52T/aw9z94Q9/aGtBqKTadiK859hjj3XvqC/sw8o2V9Vkjz32sL/53HPPdSO53GOPPWbznb06uXZsgcN7unTp4t7RWLAH59SpU91PycN+iOuss45dw+hagOxm/qGTvfDCC7nQcLf3sOd7kqBzfPnLX85deeWVbuQz+K633nrrira3mj9/vn1uHqeccoobrZzDDjus6bxTpkyxsQ8++MB0rRtvvNF+joPX2aKyoBSQF8hj9rONwlrHGlvKHtB83/zuf/zjH26kflQ9Qhkq7xbZij7wgF999dUWCSS8S1Me6jV++ctfuv9VX6JNUAo1CCKs7T0dSdQjltsZ0MP/K5TuUAhC6tTslNuxMVwU7Hocc8wxbuRTSIXi+yOFqlho3nu746ZC4OlljuA5SuqBNygJfF0o+fahgLfjSvGRDu95JJ2CeUb6Gul/QCoVEL2ghqI1EK2f9BEboi+kA4aKkkV7kCN8J6QJ1qI9fiPi55+PvCAD6VxHNoYfo3EBIH/KiZ4hK2jd7lMQ8yHCTGomaZpf+9rX3OinsD4Q0YhGnOLga2P8vZsU/roRfQmVFYua85gwYYJ57fGA06iH+5koDu+PZsPkQ0YJlLsdEZ3SKZ3Ij3qS0cC9w/XjOreEzypJIn2t3kS/56TKaYgcs7UOmSL+OyS6gb4TKtm2FnC96dRNlC4r24pUCtfaNyrysiI0Pizqgmwm44C+FP495fSLEJ/B3CJdnrXfb4WDjGENZP7RyZ8IIjWWyOf8KGZLIJvR71asWOFGPg9ZKuhR+RkqROp69epl33kl5RDR+sXm1oo4kJbrIe01tIFsbTvggAMqaqZDeQCUI6vJLCOqS4QyP7uN60sGYDQDrjm8rE5DlLLqBuXUqVMtRS/64CKinJCCQ6onqWmkMqUFJpmnULMbFFWUIowpUogqxaeIIATKqZ+kRoPU01J4+umn7blc44O0NlIK84UDQgpBxvcZTU8oBDcLgi5ucTWLEIKRvfeSevi94irFKyvlpqS1hE9/ZhHACYDT5eyzz7Z0Eg8OmYkTJ9rcYV/C1oB3vHBduEeZe6RiY3x4SCO84IILLMXMOzLywUDy94NYHeoncfoBzi3uO9JcL774YlMgPMhvUjVLbdyCE5H/j4xjAfQpQvngNGDOF1IiMJL4visti6iGQUlqkpdvKHaUBvgH8xOFhZoylDSuMbUvxfBztJwmD8hp0rm4P0hbjoLxgyyle3mhes0ovI5MS6IhRr2Jfs9JyWmfwkqtKVs7zZ0719KYuSc86DSXXnqp7a9dqOFSI8I1wNChrov1Ch3pZz/7mfWiwMkHNOojJZtr01z6NfOXBilJ3qONRH795Pnnn29yE0PEg7MVxxbvLaW2D5nLd8Z3R+CB/RebA70wX74AshW9kP9biYM9alAmOQdwcnh5yvxCLmMENldyUCrYA5SqFdOFo1BOh4O10FrHvcLODdhKxfC/s7k1taaEN27iRFNew8XfjVZOrVJe//jHPzb933Dhd6PVIzS47HeFN70bKQ1StkhJLYXQALHfQbpVOZAew//r27evpSGsWrXKvVIeodGT69Chg/upcSAtkOvD35cEpJJwvrXWWstSVkKlJBcKHvdqfSClkfTqYo8tt9wyd9lllxV8LfpoLh2wJUgBCRVyuzahcWLp04VS+kqhW7duuVC5zoXGkhv5PKQEFvrspT7ipIGSelPoXNGHT0VcvHhxwdejj3ChcmcuHVIC/Xxm/jG/STVOClKhSJUKlQQ3sjqhodo0/0899dRcuFC7V5Jj5MiR9jtCo8mNVA7p1ZyTx5IlS9zo5xk+fLi9h7TAYoSGn713+vTpbqQ4H330UdPn2GeffexeYSwOoaEUu6SjlLlcyiOOrMjn5ptvbromCxcudKOVMWTIEDvfL3/5y9wll1ySC40mS+WsJ6zNha5h9HHGGWfkQgW04Gv5jzh/z/jx4+26oC8gq/r37597/fXX3aulw3XlPKGB7kY+D2mfhT53qY84JSpck0Lnyn90797dypcKvRZ9xNWnuC+5PqRajh07NjdhwgT3SuVcfvnldu6WSkYon+I9pOMjY7jfk4T7lPPz4N5KEq6XPzefH92iUkJD1dascrjlllvsM1CecNZZZ9l6G4eZM2faecq1c6qBDMoCUAfm/y/5ydUEhcn/rnKEAvVF1KyVild4qEEqB2o//OfjQa1rjx497LOWo6hQb9KuXTv3U+OAE4DrglBIAowkzofAxgBHwV65cqV7tT5Q+xKdA5U+2rRpk7vrrrvc2UsDJd3/f2oOTjvtNKurjQNyhHnd0kKy3XbbrfaZy31QX1wOy5cvNyO30LniPphDKC3lMGbMGPu/zOeuXbvm5s2bl1htsK8JxEnSHNSSeMeBfyA7WPgXLFjg3lUZOCM4L78nKX784x/bOTfYYIMWFfGHH3646e/CcdkSzHHeV25d8tChQ5t+Bw9qOnfZZZfc5MmTmzXkC0Gtcrk190BPgDXWWGO1zxD3wXpTqUNt7ty5TedrqWa1VKLOLWokDzjggNzzzz/vXq0PXCP/Nyb12H///d3ZS6dPnz72f+m7QB0hNe3lzDkPhilGE/0OmoP5nP+Zy3kcc8wx7kylg5Om0LkqeWBYlAP6gL+/mH/URyJbk2LUqFF27pbOSd+C6N/A50FW0GsjjjM1n2hfkaOOOsqNJgO1rf7c1PQmQa9evWy9LQfqXHFq+s/Cg5pX5AlGeqn4YBGGcr1pwz/hh0kUungRSgbSk8ifTwJSsEidAmpAWgqpk9PsOxQSfqeupFTYGoMW9cA+YCMj7YaThjxuWgUDf1uptRakitCBLzRA3EjLkFdP/jj1SXRXKxWuM9ePVJ78bqL77ruvbdNQCqS6UYtJR7BGYuDAgbanEXORa1UpdAfkmpImR1ocdTl0o6SGlfRqrmOtWbVqldUCFYPOcj/5yU+K1hWTIkZNbDmQukPqFOmu1G2wNQhpZ1wv0oHLrTMrxsKFC+3vjku4wFjqUDlQW0R9XUuQQkatB2lM+TWG+ZBiST1fOWy//fZWH3byySfb50fOkKZJ/SJzkO8uLn5dOOecc4Ljjz/ejX4e9rALDdvPddim/ICO4JWmD5KGilwPld4W64TKgVpmar3puuz3liwEMjtUtO2YrULo6tccpKayblEv7deIUiBNmVQpyk3y08W4d1gLSoHvnzWUeq1yIBWOdLJK7h8P8417KZoCVy6kZXuZxJzifJVArRKlKZSPUOdEuisPSnhIPWQP0npA6VCxejO262Du+zKbliCVrpy0RX438oZ1EL2G+5jfxZrFdWLuFSohigt/L7V6cUF+NlcW0RxsxUP31GIMGTLENp33enBzkIZeTI7nQ0o7HUspIUBGMPeoaSfFmp4XcTqNRkGWkb7ZUlkQafusEciY/HIodBevP8eFGlvf4Z4OshdeeKEdJwHfy3XXXWepucjsJKA2nflOunc5UF6CXpO/1pGaz/e81157uZHm8bo9Mr/uXZPNrEyYrEco8czz//BCJh3Kz2f06NH2u8IJVFYkAE8Z0YNSCW8g+z0nnniiGykP0gNDJdZSZqNeFcZKgXSATp06uZ8aB5/6RBSgUqKeb5+axRhpP4yRfk2aT1ohYl6tLq++MyddCj3MPaJ6pGfWO0JQK6rZ5TU0rix6zPl9xzjmH90aGSslTbMlSF3iPI888ogbaRmyN2bNmpUbOHBg0+eKEzHL5+CDD7ZzkfqXBD7yyoM01Zagk6B/r+8y2Byh4W3vI408Dv/85z8tE4CsFKL6nIvrSBfYUkCmRTtNZxXWSX/NScOsFFIZOdeIESPcSM7uR9Y3xotFnutJNbu8+m7um222mRv5NApDOiDjaYig1IpqdnmloznXM9o1H1mJXsZ6WEmJAplvnJsoZSm8+eabVgrFd0tGFf8XGcM6VQnRiDt/b1KwnhE957xJRj5ZG9HhOX8ciJSSjUZ2CVkZfL5Su5BPmzbN3p9k2nNcUrEPZZrAK+P3Jwtv2Io88qXgo354hUr1BtL9j2YJpTbkAe8FK7VDIl1hb7vtNvdTYF1t6ciGR4wOYL4bbSn7lOEx5++M242Uz4K3HO9mUg/2T0oCmg1BvpcuDni+aRiz3nrrWbMH4LPSBYzukDTp8N01gd8ZjbCEwiyYPHmyRX+8540xonlEfPBeZjVC7JtgRCP4zEe63uIRpwNuFOZMPni0KZ4P5Z4bEVFoesS1IdpL4wxg/tH8iMglr0fvd7yxzUX4aDZA0yjmLlF2zktUhAhGtLlUFPZVi35vyEQ68NGtkAZkeM0XL17sXo0PETTw926l+O6uUKxLd3Q/uGJRehroQKkym7kdKndN85trHSo65rmm+6hvZlVKVIfGZUQ3y2kIlFai33MScto3B4vKIqIdPguKjtNRkDtRmUMGAPKYaCHyGcioIgOFe803Zcsa/j6Idi4mOknUFliborAW5X8fyA2ai/AsCnPXXXfZc7RzK7KSiCFR4vxoHvd+c5BNwZwjA4UsJDJfgLW1EMgOZIyHLJi+ffsG48ePN72Q7Avmum/sFhd/X0BSchqYW2QCQaWZClHQr1lXSsnk4m9Dt45GR5H17NE6e/Zsy1QkIwN5TqOlYvhOsElnacVBBmUEvmjf7QkFKokOrsWgcyFgRJQCnxFDF+Fczo3mWwuXslEqRjUGDZ3BSBfKh9RV3y7at6xuCS/Q4qZicKOQQkUHuaQeUWO5Evx3gBCNCsE4eGGOopKf4uUdDyj4HoxLUos8dHjD8KYLMR3CSDEkJRRBR2odG/6jzGdtKwAWMQwXHC4Y1lH8dcHY8OAQinZ+Be5l0jf99g3lpqa0BryiQvpOFJQ+DAyIXme6V0YdHB4UZb/h9YgRIyyNlxQwHGF02Yuew4MyhGJCCnkhcJ6xaCdh4JCuBaSbJYE3ADhfS9uAAN2ZPSiBLeG3NipFZpOizb1B2vkll1ziRj+Dz7bffvvZcSmKh5fZpXSjTTvRdTI/BbhckPHeuZV/n/hz58/vaIo26ZI4WY477jhzgtHB+4QTTrDO1ByT2syDrWayhje0Sf2N4o3G/OuCEcOa5EH+ILdxLKErVGMz/qyDw9lvD5G/ZZxfC6NGCNceuZoPjjucX5SLkFbJMSVMpCijY0SNVQ8pnegWyJhCafOsz36ue2dYXLyMhqTkNPg5Cr70IAm8fu2DUS2BjYFujbOvEKT60s28U6dOJXXw97Iam6XefH5lb8WQf4xQIzcdg6O5Pau4cVGUWMD9/jNx8Ys8SoP3nLcE9YwI2+YmY3MQYaRmqBTlBIFOVJHJ3JzBiNGJB7yU7V4qNSgRcBhICLOkHuXW8DVHtKax0pohr9AX2luU2jmIvoax7xcLFg6iR2zxgNGIpxIlndbsRPHYBgAvIso9cyhLeAUOj2K+E8W3yvYRXSCiNXjwYPdTYDUmeFL5u1EC+dnXYovP8A6N/PmH15UoGdka0cg+MnLAgAHup0/BYBo1apRFxXFwYGChPCNTUcabi+B5xwj3eSGQRxio0X3E4uKj9EkpKj4yg1xpKaOFqEs0WpAvg3wkx0PrfuRLKTIbzzaKZP53FIV7BRlcytZU/nOWW2OWRpKU0SjzzEXkSf519hGHqCwiq4Tv2TsC2X6HGmIcI507d7b7xNfKc61xIhDZRxfJUjYJ642vtc2XH74uPHpv44DFsdmhQwf7GUOJOkucfvSsQOZwncTq+CwS5kr+FhV+LcQY8bDO5dfhEaHDKES/RXZxjB5Hbw3ez/eErpgP0UxkDHphc3IB5y+ZaH4P0rgwHzwEMJLCG5ToQ94ITIJyDEq/1jUnp5FRr776qtkY0QBCcyCrMeaLOShrQVUMymh6R/S4Uso5bzm/F28IxdOkc3IjEdLHO9AcRAfZh80X1FYCyj+KMjd5oWigB4GN9w4vUSEPdCkwgVFOOFdLoMj06dPHFMyocPI88sgj5l3Fm1XKze73MkuDByVpohGTSjZcxyD0jRIKCWMi2cxJBCF4Jd9HMfi/vojdOzlo+hHdMBcPMYsBe4BlCR8BKpSG4/8+n9KNU4Z7E8Paw1zFqIHbb7/d5myS3slGgLQ8n26an0qPkcLcQQH2kXMiLTQOiCo1OJmIsuDAyDccvfGWH9XxcB8RsaABTSHw6rJot9TMp1S8ot6SjC8VIuekJkGxZixR5YDrGDV0UK6j0Uvg/cjsQunb+RB1xLmE86XQNeYeQl43t+9fPl5mN0KEMiqjS2mo0hLeeUAEJ1/Z81lG0SYrGEXRTCeibjge0E9oxMF3hQEVhfOwRkdTqdMOTVTI+mB9yndY+CysaNSKxnMYOv4a4uwkckuGDTIaSm1Q2JrwTmeaf+Xjr3O0pABdEbkaBUMFeZ9fJoJ8h+aCFeiFNANClhRaP9EXr7nmGpPhpRhCLeEzYiDfcI4L95x3JBMhLJQpExdvHPq1oCWQ1TiMcAIWgnR41iYaaJYCsho9Pak9dishsSuKcutTCaNdRMnnJiKAIG2pa1Qh8IYQdSGdB+U4mgKB4sLkwMDyOcQ88zOLKh0JPXQG5L2cyz8wihBcfHl4W4hqoKzg5SkWro8uUHHrAqPgpSQSyMISDckD0VAUDYQrNwQpZqWEwQuBMGCh8jdVc/A+JjTe1WjnUoweUh1Q1vGmR6NALcHfhBJfTs1nVkDIevAqxYW5TQSD6xT1cHuOPPJIux98KgjRx+gcx5j06dooIgj0/OvN/0dQ+xSkLICSQsQcCs0frgv42gUWUBYLv4k24ChC2OI95Fyk5fjFV3wKshtY7KLyDTDauWbMPb4PIo3U5VF7E4WO08gXnw4fhRpI5FZ+yrKHbuA46Lwh46Euh3lN9AcZHVf2RfEGZfTeLQfWGa4Xjkc67nqojUPZYn2Jetg9KMvMTeAacj8Ccp1U7EIdu1HO+dtRAFuCzuQYqaxf0XRuvg8MSbovEwVrzqDPB+UQWVRp6loaIJPGZxtValB6hb6QLCJVlUiBl0WUaZDSGU2DpgwBmCvMkfz0UPA1rqVkLKUFr7dEjUQP9zzdgv09gRwhxZfSHQ+p7v7ewOnB3Cuns3FrwWeREFXMh+wNMnj8/OO9RICjOirzjjWQ/x91fIB33DZnUFLjx/mJ0nvZBcgYvjMcAnR3LTd7rhBR+Ul2S1w4D/chdgkONy/7sUXmzJlj9kLUeI0LmR/Iymh9aXMQkOIz5a916CcEqLi+7BwQdTg2B+sjEcrm+hLUmjbhYpZICHHGjBnmcWPy5qcSUVuAwYmSh+JQKhg0GKecs5ACyKRmgWCioMTMmjXLHqWCkklEkgghxlE5HmvC/3iOaUFfajOdlsDTjYGAwYhSh5GLMYfigjcIw7eU9NKWYOJxbrZxKfY9MC0wdIlmofzwMy2z8cKjnJBCWwp8R6QHsQBnLTJWCggGH5lg7tFEJA4IehYEFlVSf/LhO2CcOjS8wAjt5gx6Fm+8b77WwsOCgWedSHH+a0nAnMWrhgc0KTCyiZZj1GBQFPLC4TBCUUNOsEgilPNrUAEjCHnCdag0JadeYKwgDzAySqlfLhUcbMxdlDwfzY2CLMKJwYKMLEa5iEbkmJ+M8/z222+v5v0l5Q2lnmue7zCLwuJIG3qMImSqlztHHXVUYs4olB+UVSi2bUdz4F3mfkUG8jdjrGDEkQrJ387z2LFjCxpvKDisVSh7OEWpLUUZ434ulO3C9SIyj6MEo7ElcBRhPKI8cf25V/hc/H++11Lr9FH4UURxIuRHTbMKhjkyj0ykSv4m1mjkB2uZj+hEwVnL2ko0ne+A+VWodAalkjUd2UWdexTkJ1kWRP2K1eSWC45gUmpLSaMuB+Yw0VhKLArJVn4ftaI+lZKtIAql6OE4wYBAvqB/ZBWi0NxzpP8nCQ4s7k/u8ULp9QRJSKtmbcCBhaMq6oRDtvP9sw0cBmCUYcOGWdQMA6s5hytODmrk0X9xHPBAxiC/+Fv5nUnAuZhLwJyIG7jhWmDksf74B0GaqKzGMYqMrBTmN/cX2YbNXT8PujgynWwy5DLrnF/ryvksBOz4HnESJLVGVkT4R4gUwUbkN9xwQ+7yyy+37VeeeeYZ90oyhEpOLjQo3E/VZ86cOTgscqGgciONxYoVK+zv45GGts2hwm9tu9loPZ9QgbbPGQohN5IsoRJVtW1DKiU0Tmw7oNDodSPZ5NEqbhtSCaESYp+rR48ebuQzQqPIXgsNUvv5tddeq9v2N9EtPq688ko3Wnu4BjNnzrTH80W2vGG7oH333df9VH1Cg8uuT2j0upHsEyri9jex/qUBtptCTnPfRHnvvfdyoVKe69atmxtJlmpuG5IE48ePt+8pNALcSDb5ZhW3DakEv83Z0qVL3cinsD62b98+1717d/s5NBybto6qB0OHDrXPudZaa9lnyQJLliyxe7qW60rfvn1zW2yxReztSpJGTXlSBt5Mum0R+WQDVl/smxR4TIlylZt+HBdqJYhc4YlvRPC4eg9gJSmvSUG6d3hff64lNtEesgiI9FHjVg1I0SjmmasXZE+QUuKjp8x/vLdZAw8rkadCUY96grecz0UGRD6+NthH7IgUE42sBz7lCeKmvCYBWQa+o2ehaxaFaA4pw3jUawFRMxpzJJG6lhZ82lwaZDTyGTlNpgHZO1HonExTjkJZAkmA/EirjAZKaqgH81EasnBYu7JGWtdCr6vklzWQoUJk0l93Ip2FUvBrhU955XMmWetYTcgMo0ldrbI6uEZkS5AxSKQ4DcigbGWQUomxQUpWtSF1jSJtUsSyIhTi4IVzJU15ksKnFJLKEYU29NR+3XrrravVFyYJqSWFmgWkAdKnmIM4aoDGAc1tUZFmUIypkfHNiNICaTuUHuR30SRlnxQroA6clFPS++N2fK6U6JY59TQoy4E5iyFQKBU+aajlpucB8iItSkoS+O8aGY1BV098/SQOAu4HD/cFe1niQCAduhrgwPC1cmmDdH7KnHCk45yixoy08izqDtxDfguNNOG7ckedU8xFXw/v7xMaRJJ2XC98x+Rizra0QUkN6fA4sKsNvSHQA3wfiTQgg7IVgueJot9ok6NqQK0mDX5YIBqZNHm/achDvQEt3IkOE42mOzBeM4zJQg1/koLFP61KKAo59R1s2E/9CTU9pTYoSRtpMyY91HNQp0Z9DoohBtC5555rDTiYF9R5ULcY7cBba/yG29RRJtHltRbwWenIyPWttoyhRpAazyw6W1rCy2jqp6JR6nrgu7cSiUM2U0fFeozDBSOE+6daYKiV2v+g1lA3Te072Q70XuDaIC+yCBkkaTSE2aZun332sXp5tiKjZwd1xdTHIw99Y03ukUId/msBjax88yx/32YFarVxCKH7VhMMbupDaYJUqJa2XiTWlEdkCxQ9PCktNcmoBJRHvKEYNGlVgJOClAMUPowV33G4HpCyQgouAo3icBoloIDShIc06kaOEheDZgK0T6exFNeIdNf8PS1F5eD5Zp8tnz7l96QjpYqmSmwnQiSzXuDgwrFCm3ciRVkCYw9FGyWiGtAIhqZaGN2ldBjMEqxDfoslGqkV6q5aK5DFRLCQzSjONDghFZGIUFL7I2cVUn5xfmLc0KCkXpkMjQwqP7IY45EmdpTA4LSieRqyBaOea5/UPr3lgsPFp9vTvKrSrflqDToGTZnIzMtvuJUUOJ7YToXrkyowKEXrgyLegw46KDdu3Dg3khw0nOjZs2du0aJFbqSxCW9qKyDnsWzZMjdae2h8xGcIF2U3IoSI0rlzZ7tHDjvsMDeSHT766KPcwIEDq9L46tlnn81tu+22uSeeeMKNNBarVq3KhYqyffcXXHCBG609rLsbbbSRNVoSQnwe7k+vT9GELosgT2mslXRTTZgxY0ZuwIABdWts1xJKeW2lkIJGkxaaYyTp8aalNR4v9jyrZnplmoi2ay62x2c18bUxWU3lFKKa0M7d1znnN63KAkQMSGOnYUYp+52VClkVbFl03XXXWTOeRoQaX7/NjW8SVQ9Ib6VmzUfuhRCr47c0o9eDzyrIGkTWkdXUvyfZW4PsGjILObff/ipNyKBsxZACieGX32muEuieOWXKlNRstFoLqDUg/QDqYVBSc0CqEAohSicpXfXqotkaoA6L+4YaH+pPqJeodj2yqJzFixe7oyDYeeed3VG2IE0bR2CS0P2Y5mmNakx6/Gbw9TIoqWtnbQRqGatVbiI+he+ZdElqgkeOHGmp+MhukW5ITwccQNwnWYV9Vtkfm300k4K0ZDoh1ysduRiqoRQiAViwUPRoHe0FYq2gFgKPVRS6+coLnjzUnhx//PFWp8oWJDT7oTshtQzU5bG5sUgnbDhP7SwONJpONFIXU1EcnD477bSTHT/zzDOJb8lVDLbsim6BQYSBLXRac217NaALNtuU8f3SvXSbbbaxrud0+ibCM2fOnKp1OheVQa8DmudRhzhu3DjreiyygwxKIRKARgJ4QlEOSGlKayc9ER8ay2Cks+VIfrE9Bj0RSyL0NP0R6YNGBiiTNEXJd8CIxgdjjnsT+UyZB/eraCzYhuU73/mOpRzOmjXLjX7Kiy++aNux0JhLjr90QhaJz25j640slia0ZuQaEyIB+vTpYxEPlBZSm0TjQdc2FNJ8Y5LUNcbocPqvf/3LjYo0QXdU2uFDGveHE9UHZ5+vd7/33nvtWTQWZJBQ8lEosrXXXnvZ96601/SCww/odpzVsoTWjAxKIRKgQ4cOtgcR1LMxj6gOOApohkLqFHUMUaifpXkAe6b5WlqRLtjn7/3337c0Q7+5t2h91LuOUlSXO+64w55feOEFe47CPp977713MHr0aDci0sb1119vz+yXqZKE7CGDUoiE8JEr6jREY0F0gwYBdDGmWcC0adMsvRVDk/QqUnWokRLphIZVwB6YjbbHoigdNnWnoQWNiNjYXTQWfm9hDJKxY8eac5fsBKDHAXt+brDBBvazSBd0QKa2GYYNG2bPIlvIoBQiIajPwOjAuHj00UfdqGgUjjzySHt++umnrR341ltvbak5NHqhiYBIJ6tWrTJFEqq10bTIBu3btw8GDx5sx5deeqk9i8bh0EMPtcgWWSRnnnlmsNtuu1njNL5zHIAivfjo5Kabbtq0xY/IFjIohUiIzp07W3dVSHJvT5EOzj777OCcc85ZbZsd9vCjeygecZFObrnlluCDDz6wyCQNeUTr5vDDD7dnmrbIEdRY9OzZM1iwYIE9e6hrZ1ut3r17BytWrHCjIm14gxKngMgmMiiFSBAiV3DVVVc1pdqIxoD6O7YMefPNN4Pnn3/e9qLcYost7DVq9IhcivTh012POOIIbRcgrDHPZpttZvXQXokVjcOee+5pGUI0SaMRF2nOwHYi48ePt2ORLp588klbP9dbbz3bkktkExmUQiQIDT+6du0arFy50jYLF9nnzjvvNOMxuoccCinOA+qwfDMmakBEuuA+RKmktmrMmDFuVLRmSIn0Susll1xizyLbYCxOnDjRtgbxUCtJEyaik2SWgOpm08ns2bPtmTW1Xbt2diyyhwxKIRJkjTXWCE455RQ7Vtpr9sGYpDMgaXJz5851o5+BodKvXz873n777e1ZpIeLL77Y0hr3339/q3cVAqiHpkSBve5kZGQb9p5k267jjjuuqc49H1877Z1/Ij1QjoBjB92J71BkFxmUQiTMj370I0uFZD+spUuXulGRRWhD/+9//9u83X7D5XyITNJEYKuttnIjIg3QjIfIBBEpUpWF8KyzzjpNXZkVpcw2y5cvt5RJ2GOPPew5H16nU/fBBx/sRkRamDp1qvUiOOCAA6whj8guMiiFSBg8bX5jZRq2iOyCkchWE4888oilueZDrSyt6a+44go3ItLC5MmTrd6V7svsEypEFLIOUGCnT58evP76625UZI2OHTta9gGprSeddJIb/QxqZYlc0vVVWSTpgr2BaXbXtm1b+35EtpFBKUQVGDFihEW0rrzyyuDhhx92oyJrEG3ecMMNrYYymhr36quvWoTjd7/7nXUR9c15RDqgIcd5551n9Thy6ohCsB/lhAkTrM7WlymI7IExcv755weTJk2yEgVSKIHurldffbVtGYLzgO2dRLqYMmWKdd799a9/HXTp0sWNiqzSJhfijoUQCfL4448HO+ywQ7DjjjtaFEtkl/nz5wd/+tOfLDUHUGLYfJn6SpE+jj76aKufJJ2R7q5CNAcGB12aH3vssaBbt25uVGSNl156ybr2kk2CWkt9O5kJo0aNspIFkS6WLVsWfOMb3zBnLN8ZmV0i28igFKKKkPp6+umnW0rkgQce6EaFENUC5WSnnXYyZ86DDz5oNZRCNAcdQlFsSYe86667NF+EqAF0xL/11luDhQsXWg8CkX2U8ipEFTn55JOD7bbbztrU40EVQlQPGigdddRRtp8ZtXEyDkQxNt544+DCCy8M7r777uCiiy5yo0KIasGWamT8kIYsY7JxUIRSiCpDp9edd97Z0m/uuecepXYIUSVIb6Xe9cYbb2za0FyIUhg5cmRw3XXXBX/961/VsVmIKkEp0K677hrsvvvuwc0332zdd0VjIINSiBrAxr3U3NFxctq0aW5UCJEUbGzOPmbjxo1r6rIsRKl89NFHtu0EnYFJw2vfvr17RQiRBKSX01OCDBK2VVt//fXdK6IRkEEpRI0444wzLAWWjmannXaaGxVCVApNVQYNGhQMGTLEGnMo1VXEAYW3Z8+eQdeuXa2ecu2113avCCEq4cMPP7So5HPPPRcsWrQo2HLLLd0rolGQQSlEDWE/LDpPUt9FtFIIURmkUO22226WUn7bbbeZ91uIuBCdZO9ZOjjjnFBKnhCV8cknnwTDhw+3ukmcf71793aviEZCklKIGsJWBjToYV8s0mCFEPGhPhnln46uMiZFEvTq1Su4/fbbgzvuuMM6c7OfoRAiHjRKY1/uefPmmYyWMdm4yKAUooaQikdHQdJeSakSQsTnz3/+s7Wfx+stY1IkBU1DMCjfeust259SCBGPVatWBe+++64ZlNxXonFRyqsQQgghhBBCiFgoQimEEEIIIYQQIhYyKIUQQgghhBBCxEIGpRBCCCGEEEKIWMigFEIIIYQQQggRCxmUQgghhBBCCCFiIYNSCCGEEEIIIUQsZFAKIYQQQgghhIiFDEohhBBCCCGEELGQQSmEEEIIIYQQIhYyKIUQQgghhBBCxEIGpRBCCCGEEEKIWMigFEIIIYQQQggRCxmUQgghhBBCCCFiIYNSCCGEEEIIIUQsZFAKIYQQQgghhIiFDEohhBBCCCGEELGQQSmEEEIIIYQQIhYyKIUQQgghhBBCxEIGpRBCCCGEEEKIWMigFEIIIYQQQggRCxmUQgghhBBCCCFiEAT/D8Z5SF3ex/oYAAAAAElFTkSuQmCC;" parent="1" vertex="1">
          <mxGeometry x="-45" y="390" width="624.55" height="90" as="geometry" />
        </mxCell>
        <mxCell id="lLhfapHPsjBxqhKbYOWj-1" value="&lt;div&gt;&lt;font style=&quot;font-size: 20px;&quot;&gt;$$K_p$$&lt;/font&gt;&lt;/div&gt;" style="rounded=1;whiteSpace=wrap;html=1;" parent="1" vertex="1">
          <mxGeometry x="183.74" y="65" width="60" height="60" as="geometry" />
        </mxCell>
        <mxCell id="lLhfapHPsjBxqhKbYOWj-2" value="&lt;div&gt;&lt;font style=&quot;font-size: 20px;&quot;&gt;$$K_i\int (.) dt$$&lt;/font&gt;&lt;/div&gt;" style="rounded=1;whiteSpace=wrap;html=1;" parent="1" vertex="1">
          <mxGeometry x="157.47" y="145" width="112.53" height="60" as="geometry" />
        </mxCell>
        <mxCell id="lLhfapHPsjBxqhKbYOWj-3" value="&lt;div&gt;&lt;font style=&quot;font-size: 20px;&quot;&gt;$$K_d \frac{d(.)}{dt}$$&lt;/font&gt;&lt;/div&gt;" style="rounded=1;whiteSpace=wrap;html=1;" parent="1" vertex="1">
          <mxGeometry x="168.74" y="225" width="90" height="60" as="geometry" />
        </mxCell>
        <mxCell id="XCKwEygB_NbKi-WD-lub-1" value="&lt;b&gt;&lt;font style=&quot;font-size: 15px;&quot;&gt;PID&lt;/font&gt;&lt;/b&gt;" style="text;html=1;align=center;verticalAlign=middle;whiteSpace=wrap;rounded=0;" parent="1" vertex="1">
          <mxGeometry x="193.61" y="30" width="40.27" height="20" as="geometry" />
        </mxCell>
      </root>
    </mxGraphModel>
  </diagram>
  <diagram name="pi-d" id="qHMsoyYaduv40gDQT_z5">
    <mxGraphModel dx="1806" dy="572" grid="1" gridSize="10" guides="1" tooltips="1" connect="1" arrows="1" fold="1" page="1" pageScale="1" pageWidth="827" pageHeight="1169" math="1" shadow="0">
      <root>
        <mxCell id="q-unw5T8zRAjp0JclMYI-0" />
        <mxCell id="q-unw5T8zRAjp0JclMYI-1" parent="q-unw5T8zRAjp0JclMYI-0" />
        <mxCell id="NBcs9I-yFzdxFHTIVyEp-13" value="" style="rounded=1;whiteSpace=wrap;html=1;dashed=1;fillColor=#f5f5f5;fontColor=#333333;strokeColor=#666666;" vertex="1" parent="q-unw5T8zRAjp0JclMYI-1">
          <mxGeometry x="100" y="600" width="140" height="220" as="geometry" />
        </mxCell>
        <mxCell id="q-unw5T8zRAjp0JclMYI-3" value="" style="shape=image;verticalLabelPosition=bottom;labelBackgroundColor=default;verticalAlign=top;aspect=fixed;imageAspect=0;image=data:image/png,iVBORw0KGgoAAAANSUhEUgAAAzQAAAB3CAYAAADVVgUoAAAAAXNSR0IArs4c6QAAAARnQU1BAACxjwv8YQUAAAAJcEhZcwAADsMAAA7DAcdvqGQAADmASURBVHhe7Z0HvBTV9ccHsLeIEQuKNREssUsiaowo9lhQ7EERK2IBDRJRgy02FHvDDqKAomKssaERe5eofytGDYhobLGz//ke7n0My+7b2d2Ztzv7ft/PZz+7e3ffvt2ZO+eec+4pbXIhgRBCCCGEEEJkkLbuXgghhBBCCCEyhwwaIYQQQgghRGaRQSOEEEIIIYTILDJohBBCCCGEEJlFBo0QQgghhBAis8igEUIIIYQQQmQWGTRCCCGEEEKIzCKDRgghhBBCCJFZZNAIIYQQQgghMosMGiGEEEIIIURmkUEjhBBCCCGEyCwyaIQQQgghhBCZRQaNEEIIIYQQIrPIoBFCCCGEEEJkFhk0QgghhBBCiMwig0YIIYQQQgiRWWTQCFFjXnvttWDcuHHumWgN3H///cGLL77ongmRHFOmTAlGjRoV/Pjjj25ECFEu77zzTjB+/Phg5syZbkTUOzJohKgh9957b9C1a9fgrbfeciOiNfDBBx8E3bp1C+6++243IkT1vPTSS8GGG24YTJw4MWjXrp0bFUKUy3zzzRcMHDgw6N27d/Dzzz+7UVHPyKARokbceeedwS677BKceuqpwQknnOBGRWvg4IMPDgYPHhz07NkzuOOOO9yoEJXz7LPPBt27dw922223YMSIEUHbtlrehaiUTp06BQ888IA5Hffaa6/gp59+cq+IeqVNLsQ9FkK0EJMmTQq22GKLYL/99guuueYaNyqyCmK0TZs27ll89t577+D2228PHnzwwWDTTTd1o0KUx3vvvRdstNFGwdprr21K2DzzzONeEVmEMCcZpPUBu509evQI+vTpE1x55ZVuVNQjMmiEaGE+/PBDUz5WXXXV4OGHH7atbZFNPv/88+CII44IOnbsGAwbNsyNxue7774LNt98c4vXfuaZZ4JVVlnFvSJEPL7++utg4403Dv73v//ZHPrlL3/pXhFZ45tvvglOPPFEM1C1c1s/XH/99WbQIOOPPfZYNyrqDbkAhGhBUGB33XXXYN5557WEQxkz2eL7778P/v3vfwcTJkwIBg0aFKy88srBzTffbIpIJSywwAIWeohHfaeddgq++uor94oQpcEfuf/++1shAOakjJls8cMPPwQff/yx5dINGTIkWHHFFYMLLrigYnki0uGAAw4wQ+b444+3HVBRn8igEaIFIXeCxF28b0sttZQbFVlhmWWWCdZdd93g9NNPDxZaaKFgySWXdK9UDp956aWXBpMnTw4OP/xwNypEaci/wzFy3XXXBWuuuaYbFVmBwiBdunSxXZlvv/02WH311d0rot5A5uPA2meffYJp06a5UVFPyKARooWglCo3lNb111/fjYoswUI2Y8YMC+0ZOnRosOiii7pXqoNE7l69egU33XST7dgIUYonn3wyOOWUU4LtttvO5o/IHuRSfvnll1bC/fzzzw+WXXZZ94qoN9hNJ4cG+d+vXz83KuoJGTRCtADkWrBljUcfJURkkzRDBC+66KJgscUWCw477LDgs88+c6NCzA0Vl5gnhCoOHz7cjYqsoZDjbEEVwX333dd2RceOHetGRb0gg0aIFoCyzJ988okZM+3bt3ejQsyG0LO//vWvwdSpU4MjjzzSjQoxNxi/r7zyStC/f/+gc+fOblQIkTbnnnuu7cxz7X366aduVNQDMmiESBn6Q1x11VUWf0sOjRDFOOqoo4I11lgjGD16tIUUCZEPVRIxfFGqSCQXQrQchAWedNJJwfTp0y2HTdQPMmiESBnK+tJXgMRPqpsJUQxCiPwiyXwRIh+q61GqecCAAapqJkQNOOaYY2xHHUclVS9FfSCDRogUoWEiOzT0nOndu7cbFaI4O++8s3kB6VHETQjPu+++a7H7SyyxhPphCFEjcEweeOCBVsb/tNNOc6Oi1sigESJFiLeF4447Tt27RSyYJ3379rXH2qURUaiE9fPPP1v8PgUkhBC14ZBDDgnatm1rJdNpjCxqjwwaIVLi5ZdftiZcKKiU5BUiLiyW7dq1szwa5dIIoFwsyhPQC0MIUTtogrrttttaxcGLL77YjYpaIoNGiJQYNmyY3VPqUbHuohw6deoUbL/99vZ4xIgRdi9aNzRf/d///hesvfbaqmwmRB3gGyGPHDnSws9EbZFBI0QK0HdmzJgx9niPPfaweyHKgT4jwDyi+Z5oveRyOWvqB3vuuafdCyFqC06nFVZYwfqG3XbbbW5U1AoZNEKkwB133BH8+OOPljy46667ulEh4kM4w0orrWReeco4i9bLE088EXz88cf2WAaNEPUBOTS+FYN20muPDBohUmDcuHF2v+WWW1pFIiHKhcWyZ8+e9njUqFF2L1onXp6sv/76VjFRCFEf+PzYRx991HpEidohg0aIhCHcjHLNoHAzUQ2bbrqp3T/99NPBF198YY9F64JwMx/Oot0ZIeoL8tmWXHJJe0wRIFE7ZNAIkTB33nmnws1EIniDhko66knTOpk0aVLw0Ucf2WM5SISoP7ycvv/+++1e1AYZNEIkzH333Wf3a621VrD44ovbYyEqoUOHDk0VreT9a514ebLccstZTpUQor7wBg2RGTNnzrTHouWRQSPmIMnSgyQzEy7R2sCjCuuuu67dC1ENjeT9QyYkRZKfVc9QEAAkT4SoT7yMptrZM888Y4+zDBEBNPBNAj7rhx9+cM/SRQaNaOKpp54K+vTp455Vz/PPPx/88Y9/DL777js30vj8+9//thust956di8aExqn/uc//7HHL7zwQmoJoZtttpndv/fee8Hbb79tj7PIOeecE1x22WXuWfXQNb/RG9qhDHgFaZ111rF70ZhMmTIleP311+3xW2+9FUyePNkei/qHYh0LLbSQPc6644l5iIH27bffupHq+PTTT6040tSpU91IesigEQa7CgMHDrTmbUmBIkYOyU477ZTYxVHv+N0ZSMqjikH47rvvBo8//nhw6623Bl9//bV7pXWDsofxSML8+PHjmwzJNNl6662DpZde2irXsYhNmzbNxlE6V1llFWuguswyywR/+ctfbDwJvPcPshp2RpNZFLRjjz3WjVTPCSecYNdbIxs1GM3ffPONPU5KnpDf98EHH5gDi2IDKjYxCzzSlMbGEUfZfY5R2hxyyCEmL5Abv/71r4PXXnvNxlEqaaDq5clee+1l440AO6s4ZiZOnGjrmZ/fWYZ82d/+9rf2OMsGDXoG7QJwPi2yyCJutDqYv2effbbpgZ988okbTYlcTMILPbf44ovnFlxwwdx88803x40xXvO38EDkFl544dzyyy+f69u3b+7BBx/MhcLCfdKcbLPNNrkVV1wxt9pqq+W6dOkyx61z5865lVZaye7L5Zprrsn94he/yC2wwAJzfV++W/T7LrroovYb+F/77rtv7vbbb8/NnDnTfVLL8eabb+Y6dOiQa9++fS6cBE3Hhe/Fc17j8ffff+/+Yhaff/55099xzEPBaO9baqml7BiMHTvWvbMwr7/+em655ZbLhQqhG0mW448/PrfjjjvW5Ji2NEcddRQxdrk2bdrkvvzySzdaOUceeaTNWT7T37gWWzvXXnttbqGFFprjuEyYMMG9mh4ffvhhburUqblwEc6FhuZct9DYtPMTCm73F8nA9c9vPPTQQ91IMuy8884mr/NlJLfFFltsDhkZKle5P/zhD7kzzjjDZEZcrr/++tzvfve7XKhIu5Hk+OGHH3K/+c1vcqNHj3YjjcVFF13UNL9ZH6rluOOOs7XOfya3tOR+lmCO5ssT9IC0QZb85z//yX311VdF5QnvaRSZj/wKlf85jjO/vxE46aST7PegX1YK+ucSSyyRW3rppU2HQ/9bYYUVTJdDv9tuu+3cOwtz9dVXm6xGH0R/RBdcdtll7W9DQ929qzCffvpprlOnTrlbbrnFjSQLn7vOOuvkvv32WzeSPLENmih33XWXLXicPA7ajBkz3CuzCa3w3JgxY3JrrrmmvW+99dbLTZkyxb06Nyh/e+65Z9Mk//3vf5/IRMeQGjRoUNPnbrnllrmffvrJvTobFBQWxa5du9r7WCRLTYC04Nhx8qPHYtq0ae7VwmAsvPHGG7kNNtjA/qZXr165l156qaQRgUKw/vrr58466yw3kjz8Hi7O888/3400Lih8HP9VV13VjSTDeeedZ5+LgBKzeeyxx+y4tG3b1gz7RmWTTTax34kDKGmQER999FHuV7/6lf0PFrV8JRcnyqOPPpo78cQTzbiaZ555cn/9619NfjTH22+/bQvs008/7UaSZ+LEiea4ee+999xI43DQQQfZOUFJKuYUrATWcD6X9VvM5oknnrDjwm369OluVCTNsGHD7BijsDcKGMV+7pTS10rx3HPPmVHiP++SSy4pKWs9GMAYMfzdrrvumps8eXJBnTefnj17mn6cJj169Mgddthh7lnyVGTQABYjBwxluzlYLFmEeS8niBNVjHHjxjWdwDPPPNONVs9TTz3V9Ln9+vVzo8W5+OKLTUFidwejrBZcfvnlTd+5HE8RO1Pdu3ePvfgNGTIkt/LKK5s3KE28EczF1chguHHOdt99dzeSDN4oZ8dTzIbdR44Lnp9GBgcFv7OS3eo44HSYf/757X8MGDDAjRbmhRdeMAWb9x577LFudG6Q/RtvvLF5HdNm7733LrkWZZGtttrKjjM7XEkyYsQI+9yWODdZ4rbbbkv1OhOzYKeQ43zwwQe7kezzwAMP2G/ihs5ZLf4YcWP9j8v//d//2a57OTstI0eONCfVa6+95kbSAac7euCdd97pRpIl9RyaNm3aBBdeeKE9nj59ehBaZ/a4nunfv7/lkoRKftC7d+/gySefdK+0HL6yDd3CN998c3sch5deeinYZZdd7O9KQRLzeeedF4TGYxAqM240HXbcccega9euFvfeqPicDlhjjTXsPikeeeQRuy9nLtSSLbbYIrj33nvds/QgDhuyclwqhZK9QGx9KLftcZL885//bKpwGBoGdl8Mil3ssMMO9viiiy6yuOtChMZm8OKLL5p8SZvTTz89eOyxx4K7777bjTQGFIKA1Vdf3e6Twvc0iuZn1TNHHXWUzbW0YQ5BVo5LkqDvMM/ef/99N5IeWVvP4uBlNPjrthr2339/9ygIbrzxxlhVx8ivPfDAA4N77rkndhNecupOPPHE4NBDDw3WXHNNN5oOnTt3Dv70pz9ZLiX/N2lapCgAP2LZZZe1x88995wl3NU7GF677767LfIktqdVwagQKCy+0zyVbdq3b2+P4/Doo48Gf/jDH9yz5sGYWXDBBYPddtvNjaTLPvvsY00nG7V6C8aMFzpLLbWU3ScBSbtU0YKsLAAkffqKPWnCfIdGN2g6duxo9ygdU1OoFuMVDBxQvqpacyA3gEXp1Vdftcf5/O1vf7MiCp06dXIj6UFBBhwm5557rhvJPjNnzmxKTO/QoYPdJ4U/31lR3Jljb7zxhnuWHhRegTjXQKPx3//+146xd8qlBf8HRwc0qkFTzMlTDvSx22CDDewxMv8f//iHPS4GDlUa7w4YMKCs+YvjCUcZBSpaAgwt9INbbrnFjSRHi1U5W3755d2jWeV8s8AZZ5xhCzyVjKjS0FKgvHqlBU93XGbMmGFlZLkQSkGlkeuvvz7YbrvtgnnmmceNpkuvXr3sf1155ZVupLGIemWSVEDwGmIorbTSSsEKK6zgRgXlIP/1r3/ZNVpqVyHrJO39y8cruHhoqaxUCnaCPYsttph7NBt2fF555RWrbNNSUAmKHTtfKSrrfPTRR01ezCWXXNLukwCllfUFR1naHtks8eWXX1pVOWiNOzQtBdcoxvrKK688h16YdX7xi18ECy+8sD1OSkYfcMAB7tGsXZrmOOigg8yZ3bNnTzcSD6KROBdU1WsJunfvbvLs8ssvdyPJ0WIGTXS7bL755nOP6pvVVlst2GSTTewxk6mlygtGLfFyDBq8SwhiFLxSjBkzxjwl9IlpKZjEPXr0CCZMmOBGGouoEEtSAWnE7fkkYGFkNxMlPMnjXY/4HRpIOiTkq6++sp1ziGMYYjB4xa9Lly5NMjIKTgvkEKGmLQXeSf7nVVdd5UayTVryxIebdevWLdZa0VqgBDh6CtEkq666qhsVSdPI65mX00ns0ABRLV5fJrIJWV2IIUOGWOnoQYMGuZF4sPNJSsXOO+/sRtKnXbt2ZnTRbiHpMs4tZtBEhTNNdrKCb2aG9yaNLbJC+LwATnw5nudyws3w+pNnww5NJbBFSe+PkSNHWnhc3E6wKD/8bbEwlSwTneNJ7tB4BaTYAsCOJ7t6acSk1jP+Oim2vf7mm2+a0GyEPhtp7tDgCCFcAeLImxEjRrhHs7x7hRxUyBfCJejZUwn09cHpMmrUqNiygmO04oorNuUfZp3oeY6zaxYXr1AWu24IB8LAJbyxNVEqfwZ5Qu8e9e2pjubWM3ZuuPbZAeZxWuAIQ18aPXp0cPPNNwfvvPOOe6U6vJxOSkbT78w7nenlR9+efK644go7ZpXsePg5X6ljG6c4Dmr0QO7Rk+Ow8cYb2/kl1ydJWsSgYQJ//vnn9hhLEM9QVogmd/uTH+Wzzz6zC5PmQb6jczVwkn1zRhr3FQrnKAYKXlyvB+EgeBPYJi0HGo+R1MUFgKeWCX3ffffZInDXXXe5dxUHjy4kcazqjWgjtqQMGsIIOVcQNVYRyIQM4sHh+I8bN85yvXxid2vA58/k7xBgYO+33352fAh92mqrrVo0By4NogZN0js0XsGAUgYNjRhpZIlc4jHhA/kgE7gWKimMgbLNYnfyySdbLD9hhWeddZbl4vgmps2BfCFHzxtoWSYqT5LaofGKHOSfazzA5I3iqKKgBw32kD+tBb++5x+Xhx56yOTJddddZ8Yy8qQlmm42IlzPPiQ0up7hEKXoA/m8RKjccMMNltzOfE0a8nhpUoszBpmCTkMjZIopeT21UrycjubTVgtzz5MfdsZ1ikGDoVNJ6oDXLcqV1Tg72A2imSjXBMcNx+r2228fK4+RJrKAwzFRwglTEXHLNlMTOzxY9l560YQn2r0yN/VStjlKKOSb/ja8CNzobCh77F9PokcEJVH95w0ePNiNliZUIqzxXXgRuZHiUJOcktSbbbaZG4kHTb44BpSQzYceQ/SxKFW7n7KA/DaabTYa1HHnt7Vp0yaxJoK+jGi0X0Ro9Fotdxp5cb5DhdRKLvK+cFF276otNHild05a0ASM48xvfuedd9xoLhcK91xobNv1QH8sX48/ze/SUviyyvQWSBL6UPG5q6yyihuZG47xwIEDbZ6Fiq6VBi3GxIkT7fPoU1MO9P2iuWGhcqOc1zglho8++mj736+++qobyS7ISH4LtySaasLLL79sn0dzzWhfC/qQ9enTx5rePfPMM9ZMlffRBqAeCJXf3OGHH+6eJQ+/m3Ky/Gb6t3muuuqq3A477GA9rpAnHTt2tPecc8457h2NA33/+G1priFex4uuZ6FybDL75JNPtvUsVM6bZB2NjJOEtZLzTInlfLgG+vfv755VBo2w+d7cWKOSgB5gNMbkM1nz0LWAa7lLly650Li255VAOXhkQblQJn+ttday/o1RaBBLqf7HH3/cjRSGxtP8nqT73lS9Q0NeCVZe9Eb4C542qi2QbBQufmZtY8llLQksWv4Y70I+4YSw2EVgR6VafJUVKCc0D080O19xyjWzdY6FzbkpBwojkIR99dVXu5FZ4P3mOFC5opT3ODR6LJSOOVEJeF9JZiXMJalbUjuGPuRrkUUWSazQQqHteUqY8p1PPfVUO9+UrMUjzf8l5KY1gDc1lF+2M0qFK8Crh+zB08zOI6EEFMkgTyDpMtq1wM+pJEML8az5BH8SWs8///ymG9f74MGDzeuGN5VCIrwXr6D3sBXCe/3KlS9U2aGIQH650VCpDkJlNlZ1RL8D7HN8skz0PIcGhntUHV6eRNet4cOHWzjLtddeGyywwAIWUsguG7KFCqWtATzF7BJwnH/zm9/YGGE0RBIQSsM41aDw5kNrOS5J4+ef350hIoXrndspp5xic46dGiINkO1J50YefPDBQd++fS2XNwrXALKu2oIi0XU/KTmNjkJBJWDNIwyXdY3oDNIgKq0iyWcRzkuxoXLgemBtZWdooYUWcqOz8uTJ+SYnp5SsJoKFa6pSPbAYVRs0TIDQKp3jhiGDksW2GwsjB59FyZf6zBLROM5CCZQkvT777LMWbkVVtGrxBg19YQol2xYDBS9uuBlGCZRbMYuYdhY8FOconF+q5my00UYlq+bwu4irx/ipBBQpQonY/k/qxhxNAi/AvKKQBD48xC8Axx9/vCmKhP156POBwkeoVWupgpYfbkbYHSGXxBF7o37fffc1ecQCQPhMIYj5TVqopkUaBg3yxss4StUT7uVvHFsUN/qH8T9xsMSpiuUXs3LmIiE8hCygxOSDEcXi26dPHzdSHP8/GyFHL5qXmJRM8deNz5+hgAKyeOjQofYc6EnRr18/C2MpZw3KMn7d5fciPx544AELfaK4hZcne++9t8kTHHrFqveRtN0S5aWzSnQ945qm5x+PkdWec845x+YfTvE4/fGYvxjoOK1Q7u+//373ypwgE8iVKZTXhyMM/S5aVawS0jBoIBp2huOOpHqMMJ/jXQnkMrMhUa4TFD0Q8o1NnCIcX2T4Ntts40aLw+YGzvBEw+TDSVURPuSM0JKkqMeQs/DkNf0toRlpE04G+1/hRe5G4sE233PPPeeeNU8okO1/lHuMfRgCW/+fffaZG50FW8Ns28eBbvqhUu6eNQ5sn3J8OnTo4EaqY9q0afZ53AjxOfDAA3OXXnqpe7W+STvkLFSs7biExmhu9OjRttUfJ9wyCqF74YJgW+5x524tIaSU39y9e3c3Uj10+ucz27VrlwuNOzc6J4QVENrA+/72t7+50eLss88+9t6nn37ajZQG2cXfIGMIs+TceELFoCnMohShEmqfc8ghh7iR7HLooYfab+H2xRdfuNHK4frwMvzBBx+0kMCshP6yHqYZcsY1xXE5++yzbc0PFduyw4aZs4Rkh0pt7t1333Wj2SHtkDP/+dz8ehYq5+7V6iBsjVB4Pjs0cNzonDDneT00aHL33HPPHDKGsK7m0iHi8pe//KXpN0ZDoauF7xoaa02fnUQoKKGVfNZuu+3mRuLh9Zytt956rnlOWCbh3nHwoc78TVJUvUPTkrD9ixe22C2NRn7Rqg3VWMNxwNPg+8+UE26GZfzWW29ZolscvOcg6k2Ig0+WxAtO1R3KWg8cONC8GyTDsXsTB7ZQGyFpNx9/XL1Hr1q8N8tvOePJwnNVS/AM0TS01I3QjFBhKvha9IZH3Yc8xYVSj34XgCRJqjJdcMEFZR93tsgXXXRRC3Vqbu6SKF3ou8e9JVWQwF+vSV47yE1AdnAsCkFYwZ///Gd7jCe/VEK0vw7K2VVAlhCGQKgTicGEv7GLQPNfQn3j7vZ4j27cqotRkGt4Fwudw3JvFOioFn8cIQmZwnXG8QXCa/ieFFyoJcccc8xcx67QjXB1duYLvRa9UXKZpO9ywENMmAwQSkNRHiJKyl0fQ6XTqlLR4b25MCBkeaHvHvcWDUuPA+Hl7F4U+qzozfevY/ep0OvRG6Hj5ZYmjq5n7DgQZta7d28bqxaue3YH0EOKldymzwoyjkIAhNESaULoGbuU6FBJpEOktUPD7hEhWrDhhhtaCke1VCKnwUcCsYtJuDfHnJ0tdsZIB4hbaIp5AKzDSdEGq8Y9Lgu27VAsmASEliUBW9w+VpAwGoRuFEJtmsvR4AIpVFqZ+Fi2JAGFkOoWcSHekthiIDyp2i3J5uDz/URFgMfN7aAKC2FTd999txtpHi7gQw891GLky6lbjmKG8kcMfT5UCaEzeBwIG+NiSrpaU60hfhShjWKWRH115ipKFtVXWKhZbBECxx13nOXRxNmOTxpioH3IYnOcdNJJVgGrVB8lDAmu22LKdCG4xgn/YOGi9wjPOd5cOxhRSZa4BXJyqjFKUHDK+X3F8DIXw9aX3q0GwmNYgFhQUCwJYSjGTTfd1BT2cPvtt9ucLAYNLglLoPSv73QdB0J8kEv5JU9ZyFk8CWktBQYaxwe5nZ/rVwoUNEIXUUyrhVweqmFVA/H+/jdQKricipeFYI049thjLUeEEEzkCXlRyBLWgVqEhOOkjFPxkrwKjE2u9+YgP9PLy7j4cG2UM+YueghNTQlxxIBPWp5gcFWjM/H7ylW+uR4JHW0O5MEJJ5xgsqBUHx7mIucirhMTCGklhA+nGOcSuY3yy1qBjKzGaPeyjLUEWVUMZDlhg/nynPlCyHa1uZb8FtItgFDm5nINywHHOr8P2cT/IH+2WnBEI585jz6MLA44AI444ggLfct3rmEoMr/jOAOokMa1z7xMLFfK9mkqILTSbbuoJUPOwslqVdWK3U455RT3zjmpJuQsvLDt75ZYYolcKPzdaDocdNBBTd+TahFxITQhVHzds9Kwzcv/CC88N1IeVNcYMWKEbVUSqsJnUX3j9ddfd+9oHiqccFwbjR49etixCAWPG6kOH+ZDZRZgTjB/GSPkqp7DpNIMOQsVPTsGhJkBVfsuu+yypmOf5FZ/PREKffuNzLMkuPfee+3zuBHm1RzRUIqHHnrIjRamd+/e9r4nn3zSjcSH0I/QqLDQtnDBa/qfcSsy+pCzcuV8PUKIlf/9SYRlUEmKz/LrJFXOqNbFGPKYKpb1SpohZ6HRYscgVNLsOeE9Y8eOzc0777wWovfWW2/ZeKOTdshZ586d7fOfeOIJe44+RWUzxqqtEHv//ffb51CVrhT837vvvjsXGgVWeZe/48b1US2hQdj0ee+//74brR4v17jx3ZNg8uTJ9nmVVs3k9xHuzXUZGqZN32/UqFHuHc3jQ86oIJgUmQo5w6KPhpjl3+hdkCRY8WxjAt7ftD1YeMsAD39+4n0xCP9gq8/vbMXBV7WIu4tA4pg/DsDWbWh8mSeLMD8Sh8O5ZOcgDljk0b4a5UAiGx4eGoImdcMjlQTeK5HEVjOhhySX4rViixmYE3gqSeIj5Cq/Jn3+/8XjzW5cNGySanj0EaFSSZJb4i0JO5LgE5bxyoZCtamPQH4YTaHwI44vc5p5mxX81rzfqq8WPNOeYs0EPf6YQynvsJcvcfrGAOeCfl7AbyOhlB1fmhgiY7gGmLdxQu28F7oRimNEQ0GqDTPEs+vPNztYwOcTSsguKtcCHtco+dcNxW8uueQS273wkGh92WWXWR8swnayiA+F8vKE8B7WU3auCNHLlyeF5CZzmJDxJMNnGgkKB1FdlR0dv56hT1HZDNmDDhOVMdDc+sSxpimjr0rmw/CKFUZCT/INUfm/7CSw00EhEh+B4+dBNUTPf7mhXM3hfx9rXSlZHRdkJHM9rpxGHkQL6KCHECnB9c+uOj0mIe5xRFYTWlxuL8TmyJRB09L4bT0W6HJCsyrFx0iWs41LWAJCoZxtcQwSKBULD0x2Qj2ImSWuOB+2VL0hyZZoKfg8DDdCMiqBGGVi61l8krwlgRdgSeQ4eKHAFng0XAmBRgwzfP3113YP5JFEQzQxZAgN5Hhz7ogRJ2SIMfIlqMrXtWvXgqXI6xkMWh+7nS/YfZhJ9LgQP44BHGXIkCGWm8F1Q+nLSvItaoFXGJNaKL0DgvwVP6cKgVJH+Bgw/0qVYy5HvhCewMKIPJhRoIkj+TQo4IS48L9LwfwAX3o3yyRp0CAfUOhQ5gj1iOKdZziuPJyLqFz0zhHCHldffXULbyZ8DWWQY8384D6pDuktBfLB58/kyxN/XKLyBPLDzqkKRzPB0047zWQNnynmxK9nGDP5DhmUWogeZ+YT4cP5YMgQIkWVTxyyVLDEIYmxThgbsiwfwjbR4ajQ6J3GHhR6QgtpueH1r2qIGvVpGDToYtWGnnqY34RZxpHTrJE0U8d5XSi1AN3PN9SMowciz8izRe5zDhLD9mkqoBYhZ5VSScjZddddZ2FUbKWxNVcMtqfZwqeyT3iBudHK8CEgoUEzV8OiQlx44YVWaaISQus8t8EGG7hnxRk+fHjTseNxIdjmDRfKWGFykyZNavazsgwhkfy2tm3bll1xKx9f4ahQmEWouNtr4SLhRnJWsYjrB0Jhkdtuu+3snmaFvJfrNFqRhHnLdvuAAQPcSLKkFXIWKlD2ewo1gfQhNcOGDXMjuVxouM1Ryemmm25qki0jR46094eLhT2vZwgH4rty61WgsW25EHYRKhb2eX379nWjhXnmmWea/jeNBaOEC13ukksucc9mQYgO7/3zn//sRopDczbeO//881sT5kJQwTFUOtyz5qHhLJ+XRMWiWhMqyk3HvVjlpriEyoZ9zlZbbeVGZsPx5bVbb73VjeQsbGRwpLHz7rvvbvIduUbzU9bF/Cp2hAiGCr17lixphZw98sgj9tupvJnPzjvvbK9Fm2hyLdBg1nPLLbc0hW4TfsP7+cwskmbImQ8TJiQrCmsU1z6vRa9ZQtGi6xuwflEFdv/995+jQtmgQYPs71l/C+GboYYKfNGwytBIT2Qt9BUeucWt9lUKZCzXHJ+ZdFVCws3atWtn56E5mBP+d3G8C+Gb9qJvl+K9996z98ZpllwOFe/QhH87x30SRD8ryc8tB7xUJL5jteO1xJPdXKIYIUB4EkJhZlvU1UCiJv8LD09zSVocG5L3xo8fX7AIQhzwosZJysebgteD2vBHH320G50NOwD8fhLhvEerObwHr9IdmnrGV7YhvIMQhGrwSd+F6rn70EefuMnWPAmNfsuXxH223vFo+90MimxEPet4RdjRIME7S/jGbBQcyMcfF3akPBTaINEcuG5CY8eKKgBhDnjRkkrcTJPo7kWhPgrlQviQ35nyPUmKgTfNk78TjOc+GroGzEu8rnHkC2GanEtCIAv9LkKZqOBIeEgc2KFhF7dUWFwWiFbKImSnGryHvJA88TvAHDcPFcVI/AVkNt5r5DshZni5uYbY4Y1CGDE7blnZ8QQvZ5uTJ17OAuG6voId8oR10UdvIE+QuYV2CVo7fv7lH2fWSsK0KHDjr1nmD/MsGj7GzgdzF1lERcuoV99Xn/WhlPmgw7CrQ2ERvxsUhUayhGX7So7V4CMeiLJJaieF5H2/sxSnMEo5cOw4/qWKVHAM0YfpMVlo54zzyE4ZIWj5O8CF8LtC7PYmSWyDholE92UqhnHi/Ylj24h4Z8Z5PX9LrxQsVpwwhAEhIB4qkd1222229ehLtJYDCgDb7FQLI8TEQyy2/67+xvtQCBHSKNpso3NiKHNZarFP2gijQgeKJhOHGPJ82B5n648JwQUaZ3uvEExkjlGpzrhUHyHGkXCC/K1BjhslbQkLoXxzHPzWabXVROoRnzsA1VTFIp+AWFWU7UILLXMT/LVGKAjGjN/i5txikINfsGmUmA/XXjTMJAtwPUOhsub5x4VrhWMSNeTYFkeJJtcG+UKISBIGQtpEQwNLhXwVg0ULWUvsOZV+PMS2Y+AgCwuFyxCq4ZuvRUMqMKTJL8BIjIKcQF5g6JSSiYSrosDkN+xkgcTYppEseTRxfjMLM7Ldh7xlnag88R3qK4Hz5OVuoQazXkH3OQs48QhF8QomiowPZ23O0YIxyTnIUsiV/z1x5An5FlTTioamEX6DjCEsE+Obz+nYsaN7VQBrIWsNSn5+eDfHjnwl5o0/zhiN+TnBOHj5DIzs/NAwX921WP4MlerQXwmXisIYlf5oiI4h7kOWq8HLaa7dfH2pHNDvWL/43dHKfuivzFlkNTKyWrwx6A3OYmCkUCkYZ6E39D3IJirYgc9HKgWl0SFpPTB22WZOlFduC+V4sNBh5bK4lWN1sbByQPAS5Zft46sRV8k9i1o5MEGbK0OaD54VFBtOGgZDOUoDiZIkVbI4V2pgRGFhoIMuBsvvf/97K63H8UVBoGAAx4zvWA0s/PxWzhex0M1B7DU7MK+88op5HThPnGuOF0agr19fCs4jiyR/h2LVaKAo7rDDDvbYK8uVwOKIAonSMHbsWDc6GwQx5wxjFMURzypx3PnXD6AososWVYiBc4q3nXNXbh+YOOBdxiiPa+jGhWsBxZzS0YVKPbJjilOAxQ3Firj2QkmHzHscM3//+9+bzlk9w07I1ltvbY/Zma2kzwk5VDgxkN8sSnhFKcHJceKGYXHFFVfMscPlwXlB3DrOJcq9I+NRPCjGUOi7oOjhSOI6X2+99dxoYVi4KSnMvEe+sVBjcDL/2S2Ps/MLyEfOO3MgarBlFRQ47+3n+HA9VQJKOOsZMgWlPB/kMk5JlAw8wHhj2RGj/1A+FN5A+cHpEpU3Xp4wr1gbqlHmCkHhAuYcCchJgqOHvAzkCXMvH9b2kSNH2rzy62Ch96FrIOvyFdAsQVQBSj3XUSlHbjlwbJlX9LfBgMgHHQ9DhTUKQ4DvgOyIziHOEw5eyvzm71JgQGIQsc4Vg519nOT8L+aplzF8pyQLPnGNYYxQbAh9oFIwppGHfC9uXJNRWc33Z64VWtvKgTnNzir6ZKFzEwW948ILLzTnP2sH6whOENYNZFMh52sxcAqgd7DznERLgyZCYSbqlOnTp+fCSZYLlQyL/Y9bFjkulM0rFFNdivBico/Kw8fiZ6Xbfbn4MojcQqXKjVZGpcc4CjldfBfi3/Oh0zCvpVVaOa0cmrjHpbn3hYtfLlTwrPNyKIzdaH3j4/O5hUaCG215QuXE5BGl30MFwo3ODfkw4SJs5ZfLoZp5Hxr5lsuXZBnQWkIJ61Cps3POb6uGJOQJ10379u2tU3g+d955p33PNPJcIM2yzXEodfzIwaCsOucsq6SZQ1Pt/OO65vjmf86HH35o37mcvMIkroVi+FyXWs7VciG/KTTyys77rfQ4hoar5e2EhqQbSY6Kc2hE+uCBptEXOQBUY0o67wSvCKEIvmRqXCr1vhFCgkdh3333dSONRVIhZ5CEh9NvI3vPfhS8MXi+fSPXpOH7F9rJrZa4x6W59+E5Iy+AnDBCHtghZiennonusFUacpYEeMmRR3T4bq4yGruwhKOyU14Olc77cC2zPBw8m0lUK6oH8Mr68KVqQs4gCXnCDj1e7UIx8oSasGNDZEEacCy41Yrmjh/hP7QvIIeW78hOAW0NsoY/vmkc52rnHzswhSpi+UgPH25G+DVhWc2RxLVQCHZOfNhcLWV0uaAHsnPvw1LjUulxZP3lfLK7nzQyaFoxhJCwYBYqw5c01BwnXICY+Gq3SesVQjS8kletQZME3qBhezgK4UuU7CXmOy3lj+19ujbXI35r3cdp87xQbkE94Xt/cL6yorATBkluTjWhF3GhfCtGajRfshHwTpJo75da4eVJfngO4xiThCumlRtJqFdaxlK1+M70rKdAKFAhJ1K9Q+gy352w3nqDkMNo/h5gPDAvgNB8wJihLUEtiK75WTJoyKPB+VQo2T9pCFtD3yTM2/cjShIZNK0YvNPERKJ8xqlFXg0oN1SLKZWvk3W8IKsHg4bkQYyZG2+8samqFR4svOuMpanEE5ObXxGrXvB5bnw/cmjIRUq6ekzS4AWGLC2U7ObgtSY/Y2YCCazFoLAFSevIGJLZGwl/vuvBoEGeUFCDHAvynoifR5knZ4TKU/RESwuuz0K5XfWALyqCPOEYIVOymkfD9/YNousJlGBynXDCAUVziC5AEQeMG2QkvWji5twlTTQXNUtyGujLxg4sferS5Morr7TdZvIcU2FW5JlozfTv399qu6dFKGisb0EohNxI4+J70RTqk9KSkN/A99hhhx2sHj4x+HvttVfu1FNPbZgcg0ohb+aYY47J7bTTTlZTPwtx776XQhI9aFqS7777LrfuuuvmQgPajSTPkCFDct26dSvZSyGL+F405BCkGftfCp8/s8kmm1gPI4458oTvV23/tazDeaE/CPLkyCOPjNWPTZQP+sNxxx1nsjs0oE22wPjx4y1nhZzN0Mi2sVrgr9U2bdpkco3lOK6zzjpl59LEBT2EPCjywdNCBo0wwUCiZ7SxWlIg3FE2JkyY4EYaGxqHeaE2Y8YMN9ryjBkzxr4Hgl9kG4qDcC65pVXEIU1QRNZee21ruJk0NEVdY401ch988IEbaSxo8OzPfXMNntOGQhR8h2JN9YRo7fzRNXbu0qWLG8keOCq4JQ1GP00005YfCjkTFpbENjlNOgknSApCnChmQMhJtWWms4KP5Q2vrZLJiWni492LNRsT2YFQAE9+H4csQONSypgTktRcadVyIcSDcqH0MIs2oWwkouVzfQ+mWuDlCaX+hRBz40POsiijPeQkURQi6fLotEggHJiS/2kig0YYVKQaPXq0xaYmBU1RUTh23HFHN9L4YND46l5JGodxIa79jTfeMCUPQ5VCBfShEOlBXX4ENX2oyFGqtqt7Pj5/hnm1/vrr2+OsQf4D3efLraTTHOQ+kYzuG0A2IuQd+k71tXCQkMRL7gJrA1B5k94VIj1YN2kAjDwhx5Ued6K+ofqf77bfrVs3u88qzDsKN9GzJwnImSGf8tRTT3Uj6RG7saYQIh49evQwJbdr167WwLQlIalvxIgR7tksaPBJU0WRLHjMjznmGDvPVDii+hi7KRg1NIRMKjH4gAMOCG644Qbz1tfCSBa1pV+/fsHll19uHs6WVm4xGlFwouCgSqvce2vmzTfftI7rVLbr06ePVcx89913TZ7j9aeJtahPKAbhG0viUOzcubM9Fi2LDBohEsZ3oadaDN1+F154YfeKaBRYtOhePXToUOtnEwVDh5LQeLYLdVsvF8qQsktDSWJfplS0Hu64445g1113tcfs/lHJSTQWtDUgnG+33XYLzjnnHDc6CzrtU+aWbvdZq57VWjj//POtgisV76ZOnepGRUujkDMhEsb3ICBcg/KmovEYNGiQlWnNN2YIqSJvCcUzv29CJRDG4HNo2GkTrQ88v76Ubi3z8kR6nHXWWVbqP78nHL2VMHTef//9RPPPRLLcdddddu8dD6I2yKARImHWXnvtYNlll7XHSeYMiPqAjtD33XefFb2g43EUFE+SKumCnEQfnltvvdUKTBBulNX8GVEdiy22WFMyvgyaxuT222+36zw/b4Gxdu3a2Q5NPTa8FLN2TX0osO+LI2qDDBohUsBXdaMrv2gsUDIovsDuCR4532QQCEOj0WNSVWIwaIAQNtF62Wmnnez+oYcesnvRWOAcQYZsv/32tmbQKBJwZJBwThVSGmGL+gMZTePgDh06qKpojZFBI0QK9O3b1+5RdomBFo3Dggsu2KRgEmpAVRu6U2+++ebB1VdfbQZPEhCC4kMW5flr3fTu3dsUWpL0n332WTcqGoW99trL7rneCVledNFFbUeW3AzvLBH1ydixY+1+l112sd00UTtk0AiRAlS+IvQMqHolGgsqD2G0+gUMDythB/RaITk0CejdgnFExZwNN9zQjYrWCMnGftdX8qTxoKTt8ccfb84SwOP/4osvmiyRM6N+wenk+0OpkmjtkUEjREqg3MKNN96YSIK4qB8oqcpuDBVtCBEZPHiwlW2Giy66yJJ4q2XcuHF2n5SBJLKNlyc0QFZvqcaCaogUBvD5GKeddpoZsUCvJcoCi/oDGY3TCYeTb6otaocMGiFSAo8NoUjEQPttaZFtqDrku6YDjQa32mqr4Mwzz7TX1lprLSsU8Oqrr7p3VMZHH30UTJo0yZQawo2EIBSJsr0kjvtGlyLbTJkyxZogsyMDNDSk39SJJ55oZd99IQDfhV7UF2PGjLF72jSI2iODRoiUwGN/1FFH2eMrrrjC7kV2oYP3euutF2yxxRbByJEj3ehsON8+d4pk3mq49tprzfN35JFHBvPPP78bFa2Ztm3bBieddJI9VthZ9qFpJqHJ2267bXDKKae40dngDNt///3t8a9+9Su7F/UDvcFonI2Tgf5BovbIoBEiRfDcoOg+9dRTTf1ERDYZNWpU8MUXXwRt2rQJll9+eTc6J+ysrLnmmnarFP4HycA0ZKX8sxAedutWW2214IUXXgief/55NyqyyD333BN88skn9riYwYI8ofw7Ro+oL9hFgwEDBqgYQJ0gg0aIFMGYGThwoD0ePny43YtsQvgXlYeobMYuTT6EheA5p2BANTBP/vvf/5oxvMQSS7hRIQJTnIYOHWqPL7jgArsX2YQ8PArHUPb3T3/6kxudDQ6wiy++OLjuuutUsrnOwEFJKe1VV121KbdN1B4ZNEKkDB4clGGKA+BZFdmE8EGSd0ncjRZ5IGeGHKlDDjkkuPLKK60XTaWQb4WiiseWQgNC5EOJ33XXXTe46aabVMI5w1C9rFOnTsEHH3wwR5EH5AnJ5gcccEAwbNiwpup2on7wuzOXXHJJsMACC9hjUXva5JJqmiCEKAqdoHv27BlsuummweOPP+5GRdagPDM7MFQ2w2uKx/z777+3HRvyZwgTq4bDDjvMjKL77rsv2GabbdyoEHOCY+S3v/2t5WD4srEie1AM4Prrr7fwM1Qx5Ml3330X/O53vwv69evXVDlR1A9+LSdvxjc+FvWBDBohWoh99tknuPnmm+3mG6kJ4UExpcIRC6Uv2SxEMU4++WQr70uBCvXAECJ9vvnmm2CNNdYIPvvss+D1118vmkspaoMMGiFaiBkzZliyOJfc5MmTreSvEEA3cCqoTZs2zXJxlltuOfeKEIVhztD/guZ+lAnv2LGje0UIkQaEAZ999tmW29S/f383KuoF5dAI0UJQrYZyvJ9++mlTOWchgPLMb775pu3MyJgRcSDkkd0ZQpT69OljjhIhRDrQL4icJkppy5ipT9oN9SVThBCp8+tf/9oUkQsvvDBYZpllzMMqWjcUATjjjDNsTuyxxx5uVIjSUGwEmYLXGIOmUPU9IUR1EFFB6Wyq0o0fPz6YZ5553CuinpBBI0QLQ54EYSJ0lyf5k9KPonVCMjDVjCgocPrpp7tRIeJDGCsKFks5Tf6ogCaESIbp06cH3bt3t8a2Dz/8cNC+fXv3iqg3lEMjRA2gug2JvCi0kyZNskRD0bp47bXXgm7dugUbbLCBhTPMN9987hUhyoewRV8hDwVMCFEdVLDccsstg5dfftkqW+KAFPWLDBohagT9Bg488MBg4sSJwWOPPRassMIK7hXR6BDC0KNHDzNkJ0yYYP1thKgGlnJK/d5yyy3Bgw8+aIayEKIyKNHfq1ev4NFHHw3uvfdecz6J+kYGjRA1hMuPBMOPP/7Y6tuL1oHPlaHZqhqziaRAngwaNMh6XeEomX/++d0rQohyIFeGMM5rrrkm2GijjdyoqGdk0AghhBBCCCEyi8o2CyGEEEIIITKLDBohhBBCCCFEZpFBI4QQQgghhMgsMmiEEEIIIYQQmUUGjRBCCCGEECKzyKARQgghhBBCZBYZNEIIIYQQQojMIoNGCCGEEEIIkVlk0AghhBBCCCEyiwwaIYQQQgghRGaRQSOEEEIIIYTILDJohBBCCCGEEJlFBo0QQgghhBAis8igEUIIIYQQQmQWGTRCCCGEEEKIzCKDRgghhBBCCJFZZNAIIYQQQgghMosMGiGEEEIIIURmkUEjhBBCCCGEyCwyaIQQQgghhBCZRQaNEEIIIYQQIrPIoBFCCCGEEEJkFhk0QgghhBBCiMwig0YIIYQQQgiRUYLg/wEJ5Iq2oFbKWgAAAABJRU5ErkJggg==;" vertex="1" parent="q-unw5T8zRAjp0JclMYI-1">
          <mxGeometry x="-140" y="850" width="544.37" height="79" as="geometry" />
        </mxCell>
        <mxCell id="q-unw5T8zRAjp0JclMYI-4" value="" style="edgeStyle=orthogonalEdgeStyle;rounded=0;orthogonalLoop=1;jettySize=auto;html=1;strokeWidth=2;" edge="1" parent="q-unw5T8zRAjp0JclMYI-1" source="q-unw5T8zRAjp0JclMYI-6" target="q-unw5T8zRAjp0JclMYI-10">
          <mxGeometry relative="1" as="geometry" />
        </mxCell>
        <mxCell id="q-unw5T8zRAjp0JclMYI-5" style="edgeStyle=orthogonalEdgeStyle;rounded=0;orthogonalLoop=1;jettySize=auto;html=1;exitX=1;exitY=0.5;exitDx=0;exitDy=0;strokeWidth=2;entryX=1;entryY=0.5;entryDx=0;entryDy=0;" edge="1" parent="q-unw5T8zRAjp0JclMYI-1" source="q-unw5T8zRAjp0JclMYI-6" target="NBcs9I-yFzdxFHTIVyEp-13">
          <mxGeometry relative="1" as="geometry">
            <mxPoint x="240" y="650" as="targetPoint" />
            <Array as="points">
              <mxPoint x="280" y="510" />
              <mxPoint x="280" y="710" />
            </Array>
          </mxGeometry>
        </mxCell>
        <mxCell id="q-unw5T8zRAjp0JclMYI-6" value="&lt;font size=&quot;1&quot; style=&quot;&quot;&gt;&lt;b style=&quot;font-size: 15px;&quot;&gt;Planta&lt;/b&gt;&lt;/font&gt;&lt;div&gt;&lt;font style=&quot;font-size: 20px;&quot;&gt;$$G(s)$$&lt;/font&gt;&lt;/div&gt;" style="rounded=1;whiteSpace=wrap;html=1;" vertex="1" parent="q-unw5T8zRAjp0JclMYI-1">
          <mxGeometry x="105" y="460" width="120" height="100" as="geometry" />
        </mxCell>
        <mxCell id="q-unw5T8zRAjp0JclMYI-7" style="edgeStyle=orthogonalEdgeStyle;rounded=0;orthogonalLoop=1;jettySize=auto;html=1;strokeWidth=2;entryX=0;entryY=0.5;entryDx=0;entryDy=0;" edge="1" parent="q-unw5T8zRAjp0JclMYI-1" source="q-unw5T8zRAjp0JclMYI-9" target="q-unw5T8zRAjp0JclMYI-6">
          <mxGeometry relative="1" as="geometry">
            <mxPoint x="165" y="510" as="targetPoint" />
          </mxGeometry>
        </mxCell>
        <mxCell id="q-unw5T8zRAjp0JclMYI-8" style="edgeStyle=orthogonalEdgeStyle;rounded=0;orthogonalLoop=1;jettySize=auto;html=1;endArrow=none;endFill=0;startArrow=classic;startFill=1;strokeWidth=2;exitX=0;exitY=0.5;exitDx=0;exitDy=0;" edge="1" parent="q-unw5T8zRAjp0JclMYI-1" source="NBcs9I-yFzdxFHTIVyEp-4">
          <mxGeometry relative="1" as="geometry">
            <mxPoint x="-272" y="510.92" as="targetPoint" />
            <mxPoint x="-212" y="510.92" as="sourcePoint" />
          </mxGeometry>
        </mxCell>
        <mxCell id="q-unw5T8zRAjp0JclMYI-9" value="" style="shape=orEllipse;perimeter=ellipsePerimeter;whiteSpace=wrap;html=1;backgroundOutline=1;" vertex="1" parent="q-unw5T8zRAjp0JclMYI-1">
          <mxGeometry x="-23" y="485" width="50" height="50" as="geometry" />
        </mxCell>
        <mxCell id="q-unw5T8zRAjp0JclMYI-10" value="&lt;font style=&quot;font-size: 20px;&quot;&gt;$$Y$$&lt;/font&gt;" style="whiteSpace=wrap;html=1;rounded=1;strokeColor=none;fillColor=none;" vertex="1" parent="q-unw5T8zRAjp0JclMYI-1">
          <mxGeometry x="320" y="480" width="40" height="60" as="geometry" />
        </mxCell>
        <mxCell id="q-unw5T8zRAjp0JclMYI-11" value="&lt;font style=&quot;font-size: 20px;&quot;&gt;$$R$$&lt;/font&gt;" style="whiteSpace=wrap;html=1;rounded=1;strokeColor=none;fillColor=none;" vertex="1" parent="q-unw5T8zRAjp0JclMYI-1">
          <mxGeometry x="-262" y="470" width="40" height="30" as="geometry" />
        </mxCell>
        <mxCell id="q-unw5T8zRAjp0JclMYI-12" value="&lt;font style=&quot;font-size: 20px;&quot;&gt;$$U$$&lt;/font&gt;" style="whiteSpace=wrap;html=1;rounded=1;strokeColor=none;fillColor=none;" vertex="1" parent="q-unw5T8zRAjp0JclMYI-1">
          <mxGeometry x="40" y="470" width="40" height="30" as="geometry" />
        </mxCell>
        <mxCell id="q-unw5T8zRAjp0JclMYI-13" value="&lt;font style=&quot;font-size: 20px;&quot;&gt;$$-$$&lt;/font&gt;" style="whiteSpace=wrap;html=1;rounded=1;strokeColor=none;fillColor=none;" vertex="1" parent="q-unw5T8zRAjp0JclMYI-1">
          <mxGeometry x="-43" y="535" width="30" height="30" as="geometry" />
        </mxCell>
        <mxCell id="q-unw5T8zRAjp0JclMYI-14" style="edgeStyle=orthogonalEdgeStyle;rounded=0;orthogonalLoop=1;jettySize=auto;html=1;entryX=0;entryY=0.5;entryDx=0;entryDy=0;strokeWidth=2;" edge="1" parent="q-unw5T8zRAjp0JclMYI-1" target="q-unw5T8zRAjp0JclMYI-9">
          <mxGeometry relative="1" as="geometry">
            <mxPoint x="-54" y="510" as="sourcePoint" />
          </mxGeometry>
        </mxCell>
        <mxCell id="q-unw5T8zRAjp0JclMYI-16" style="edgeStyle=orthogonalEdgeStyle;rounded=0;orthogonalLoop=1;jettySize=auto;html=1;entryX=0.5;entryY=1;entryDx=0;entryDy=0;strokeWidth=2;exitX=0;exitY=0.5;exitDx=0;exitDy=0;" edge="1" parent="q-unw5T8zRAjp0JclMYI-1" source="NBcs9I-yFzdxFHTIVyEp-13" target="q-unw5T8zRAjp0JclMYI-9">
          <mxGeometry relative="1" as="geometry">
            <mxPoint x="120" y="650" as="sourcePoint" />
          </mxGeometry>
        </mxCell>
        <mxCell id="NBcs9I-yFzdxFHTIVyEp-3" value="&lt;div&gt;&lt;font style=&quot;font-size: 20px;&quot;&gt;$$K_d \frac{d(.)}{dt}$$&lt;/font&gt;&lt;/div&gt;" style="rounded=1;whiteSpace=wrap;html=1;" vertex="1" parent="q-unw5T8zRAjp0JclMYI-1">
          <mxGeometry x="125" y="750" width="90" height="60" as="geometry" />
        </mxCell>
        <mxCell id="NBcs9I-yFzdxFHTIVyEp-4" value="" style="rounded=1;whiteSpace=wrap;html=1;dashed=1;fillColor=#f5f5f5;fontColor=#333333;strokeColor=#666666;" vertex="1" parent="q-unw5T8zRAjp0JclMYI-1">
          <mxGeometry x="-204" y="431" width="150" height="160" as="geometry" />
        </mxCell>
        <mxCell id="NBcs9I-yFzdxFHTIVyEp-5" value="&lt;div&gt;&lt;font style=&quot;font-size: 20px;&quot;&gt;$$K_p$$&lt;/font&gt;&lt;/div&gt;" style="rounded=1;whiteSpace=wrap;html=1;" vertex="1" parent="q-unw5T8zRAjp0JclMYI-1">
          <mxGeometry x="-160.26999999999998" y="440" width="60" height="60" as="geometry" />
        </mxCell>
        <mxCell id="NBcs9I-yFzdxFHTIVyEp-6" value="&lt;div&gt;&lt;font style=&quot;font-size: 20px;&quot;&gt;$$K_i\int (.) dt$$&lt;/font&gt;&lt;/div&gt;" style="rounded=1;whiteSpace=wrap;html=1;" vertex="1" parent="q-unw5T8zRAjp0JclMYI-1">
          <mxGeometry x="-186.53" y="520" width="112.53" height="60" as="geometry" />
        </mxCell>
        <mxCell id="NBcs9I-yFzdxFHTIVyEp-16" value="&lt;div&gt;&lt;font style=&quot;font-size: 20px;&quot;&gt;$$K_p$$&lt;/font&gt;&lt;/div&gt;" style="rounded=1;whiteSpace=wrap;html=1;" vertex="1" parent="q-unw5T8zRAjp0JclMYI-1">
          <mxGeometry x="140" y="610" width="60" height="60" as="geometry" />
        </mxCell>
        <mxCell id="NBcs9I-yFzdxFHTIVyEp-17" value="&lt;div&gt;&lt;font style=&quot;font-size: 20px;&quot;&gt;$$K_i\int (.) dt$$&lt;/font&gt;&lt;/div&gt;" style="rounded=1;whiteSpace=wrap;html=1;" vertex="1" parent="q-unw5T8zRAjp0JclMYI-1">
          <mxGeometry x="113.73999999999998" y="680" width="112.53" height="60" as="geometry" />
        </mxCell>
        <mxCell id="NBcs9I-yFzdxFHTIVyEp-18" value="&lt;b&gt;&lt;font style=&quot;font-size: 15px;&quot;&gt;PI&lt;/font&gt;&lt;/b&gt;" style="text;html=1;align=center;verticalAlign=middle;whiteSpace=wrap;rounded=0;" vertex="1" parent="q-unw5T8zRAjp0JclMYI-1">
          <mxGeometry x="-149.13" y="411" width="40.27" height="20" as="geometry" />
        </mxCell>
        <mxCell id="NBcs9I-yFzdxFHTIVyEp-19" value="&lt;b&gt;&lt;font style=&quot;font-size: 15px;&quot;&gt;PID&lt;/font&gt;&lt;/b&gt;" style="text;html=1;align=center;verticalAlign=middle;whiteSpace=wrap;rounded=0;" vertex="1" parent="q-unw5T8zRAjp0JclMYI-1">
          <mxGeometry x="149.87" y="575" width="40.27" height="20" as="geometry" />
        </mxCell>
      </root>
    </mxGraphModel>
  </diagram>
</mxfile>
